<svg width="123" height="123" viewBox="0 0 123 123" fill="none" xmlns="http://www.w3.org/2000/svg">
<g clip-path="url(#clip0_7475_1502)">
<g filter="url(#filter0_f_7475_1502)">
<path d="M104.311 104.535C127.602 81.2455 127.602 43.4883 104.311 20.2002C81.0255 -3.08675 43.2659 -3.08675 19.9778 20.2002C-3.3103 43.4883 -3.3103 81.2455 19.9778 104.535C43.2659 127.822 81.0255 127.822 104.311 104.535Z" fill="#1B1B1F"/>
</g>
<path d="M19.1116 19.1125L19.1116 19.1125C-4.37054 42.5959 -4.37053 80.6697 19.1116 104.154L19.1117 104.154C42.5962 127.636 80.6712 127.636 104.153 104.154C127.638 80.6697 127.638 42.5959 104.153 19.1125C80.6712 -4.37085 42.5962 -4.37082 19.1116 19.1125Z" fill="#1B1B1F" stroke="url(#paint0_linear_7475_1502)" stroke-miterlimit="10"/>
<path d="M103.8 103.801C127.089 80.5114 127.089 42.7542 103.8 19.4661C80.513 -3.82202 42.7545 -3.82202 19.4652 19.4661C-3.82173 42.7542 -3.82173 80.5114 19.4652 103.801C42.7545 127.087 80.513 127.087 103.8 103.801Z" fill="#1B1B1F"/>
<path d="M95.3695 95.3797C113.999 76.7477 113.999 46.5424 95.3695 27.9117C76.74 9.28091 46.5335 9.28091 27.9028 27.9117C9.272 46.5424 9.272 76.7477 27.9028 95.3797C46.5335 114.009 76.74 114.009 95.3695 95.3797Z" fill="#1B1B1F"/>
<path d="M51.0388 40.0836L47.3469 42.5773C47.0561 42.8697 46.9656 43.0515 47.3469 43.3205L47.7062 43.6129L52.6299 47.0525C52.6299 47.0525 57.5182 44.3966 58.5618 43.9495C60.3999 43.1244 62.3916 42.7023 64.4045 42.7112C65.7687 42.8028 67.1229 43.0083 68.4533 43.3254C70.1513 43.8143 71.7604 44.5737 73.2193 45.5747L74.6064 46.496C74.6586 46.5472 74.7194 46.5888 74.786 46.6188C74.8539 46.6483 74.9271 46.6633 75.0011 46.6631C75.0754 46.6632 75.149 46.6482 75.2174 46.6188C75.2841 46.5896 75.3446 46.5479 75.3958 46.496C75.4522 46.4548 75.4982 46.401 75.5302 46.3388C75.8411 45.856 76.0876 45.3344 76.2635 44.7873C76.38 44.3538 76.4404 43.9071 76.4431 43.4581C76.4451 42.8166 76.3148 42.1816 76.0605 41.5932C75.8062 41.0048 75.4334 40.4758 74.9657 40.0394L74.0198 39.209C72.8802 38.1106 71.5726 37.2032 70.147 36.5212L69.0618 35.9782C67.1557 35.2574 65.1347 34.8919 63.0982 34.8997C60.874 34.9795 57.132 35.9794 51.0388 40.0836Z" fill="#00D395"/>
<g filter="url(#filter1_d_7475_1502)">
<g style="mix-blend-mode:difference" opacity="0.9">
<path d="M36.5483 51.6263C36.5152 52.0052 36.5152 52.3864 36.5483 52.7653C36.7313 53.6769 37.2385 54.4929 37.9773 55.0642L39.3191 56.1387C46.3351 61.3773 53.5881 66.3905 60.7551 71.3416L61.8392 71.9629C62.3101 72.2105 62.825 72.3648 63.3553 72.4173H63.5272C64.381 72.4169 65.211 72.1378 65.8892 71.623L72.5369 66.9802C74.7025 65.3684 77.04 63.7773 79.1847 62.1071C79.891 61.5469 80.5481 60.9283 81.1489 60.2577C82.8062 58.3338 83.8448 55.9614 84.1309 53.4464C84.1309 52.6289 84.2352 51.7054 84.2352 50.7381V45.904C84.2451 45.8109 84.2451 45.717 84.2352 45.6238V45.7103C84.2171 46.6665 84.057 47.6147 83.7601 48.5245C82.9094 51.1139 81.255 53.3697 79.0337 54.9692C74.8314 57.9978 70.6107 61.0289 66.3017 63.9503L65.3196 64.5095C64.8434 64.7499 64.3168 64.8751 63.7825 64.875H63.5235C63.2609 64.8649 63.0005 64.824 62.7476 64.7531C62.5497 64.7017 62.3591 64.6256 62.1805 64.5265L60.6434 63.6189C55.4873 60.1095 50.3803 56.5278 45.3223 52.8738L38.6746 47.8788L37.6998 46.9712C37.2716 46.5379 36.9864 45.9855 36.8822 45.3875V45.156C36.8135 45.156 36.5483 51.6263 36.5483 51.6263Z" fill="#00D395"/>
</g>
</g>
<g style="mix-blend-mode:difference">
<path d="M83.779 65.0044C83.8552 64.7778 83.9607 64.4525 84.07 64.1333V68.4448C84.0678 69.2659 84.0034 70.0857 83.8773 70.8972V70.8972C83.4551 73.718 82.0251 76.2941 79.8481 78.1556L77.8839 79.7638C75.636 81.4352 73.3244 83.0446 70.9869 84.6539L65.9719 88.1065L65.5288 88.3587C64.9687 88.7157 64.3161 88.9036 63.6505 88.8996V88.8996C63.2588 88.9034 62.8698 88.8361 62.5026 88.701V88.701C61.9731 88.5223 61.4733 88.2665 61.0196 87.942V87.942L45.8679 77.4405L38.3792 71.8998C37.9473 71.5965 37.5822 71.2089 37.3063 70.7607C37.0311 70.3185 36.8498 69.8252 36.7735 69.311C36.7526 69.0084 36.7526 68.7047 36.7735 68.4021V63.2854C36.8608 63.4811 36.9691 63.6669 37.0963 63.8397V63.8397C37.4498 64.2575 37.8581 64.6263 38.3105 64.9362L43.2211 68.5849C47.9304 72.0423 52.7113 75.3967 57.5638 78.6478L60.7041 80.7944L62.0459 81.5022H62.0729C62.6217 81.7157 63.2132 81.7992 63.8002 81.7459V81.7459C64.3857 81.6936 64.9511 81.5081 65.4527 81.2038L66.0788 80.8626H66.0886L78.6475 71.9692C79.7417 71.1882 80.7149 70.2524 81.5361 69.1916C82.5329 67.942 83.2929 66.5233 83.779 65.0044V65.0044Z" fill="#00D395"/>
</g>
<g filter="url(#filter2_d_7475_1502)">
<g style="mix-blend-mode:difference" opacity="0.9">
<g style="mix-blend-mode:difference" opacity="0.9">
<path d="M83.7869 65.0038C83.863 64.7772 83.9686 64.4519 84.0778 64.1327V68.4442C84.0757 69.2653 84.0112 70.0851 83.8851 70.8966V70.8966C83.4629 73.7173 82.0329 76.2935 79.8559 78.155L77.8917 79.7632C75.6438 81.4346 73.3322 83.044 70.9947 84.6533L65.9798 88.1059L65.5366 88.3581C64.9765 88.715 64.3239 88.903 63.6583 88.899V88.899C63.2667 88.9028 62.8776 88.8355 62.5104 88.7004V88.7004C61.9809 88.5217 61.4811 88.2659 61.0274 87.9414V87.9414L45.8757 77.4399L38.387 71.8992C37.9551 71.5958 37.59 71.2083 37.3141 70.7601C37.0389 70.3179 36.8576 69.8246 36.7813 69.3104C36.7604 69.0078 36.7604 68.7041 36.7813 68.4015V63.2848C36.8686 63.4805 36.9769 63.6663 37.1042 63.8391V63.8391C37.4576 64.2569 37.8659 64.6257 38.3183 64.9355L43.2289 68.5843C47.9382 72.0417 52.7191 75.396 57.5716 78.6472L60.7119 80.7938L62.0537 81.5016H62.0807C62.6296 81.7151 63.221 81.7986 63.808 81.7453V81.7453C64.3935 81.693 64.9589 81.5075 65.4605 81.2031L66.0866 80.862H66.0964L78.6553 71.9686C79.7496 71.1875 80.7228 70.2517 81.5439 69.191C82.5407 67.9414 83.3007 66.5227 83.7869 65.0038V65.0038Z" fill="#00D395"/>
</g>
</g>
</g>
<path d="M51.0388 40.0836L47.3469 42.5773C47.0561 42.8697 46.9656 43.0515 47.3469 43.3205L47.7062 43.6129L52.6299 47.0525C52.6299 47.0525 57.5182 44.3966 58.5618 43.9495C60.3999 43.1244 62.3916 42.7023 64.4045 42.7112C65.7687 42.8028 67.1229 43.0083 68.4533 43.3254C70.1513 43.8143 71.7604 44.5737 73.2193 45.5747L74.6064 46.496C74.6586 46.5472 74.7194 46.5888 74.786 46.6188C74.8539 46.6483 74.9271 46.6633 75.0011 46.6631C75.0754 46.6632 75.149 46.6482 75.2174 46.6188C75.2841 46.5896 75.3446 46.5479 75.3958 46.496C75.4522 46.4548 75.4982 46.401 75.5302 46.3388C75.8411 45.856 76.0876 45.3344 76.2635 44.7873C76.38 44.3538 76.4404 43.9071 76.4431 43.4581C76.4451 42.8166 76.3148 42.1816 76.0605 41.5932C75.8062 41.0048 75.4334 40.4758 74.9657 40.0394L74.0198 39.209C72.8802 38.1106 71.5726 37.2032 70.147 36.5212L69.0618 35.9782C67.1557 35.2574 65.1347 34.8919 63.0982 34.8997C60.874 34.9795 57.132 35.9794 51.0388 40.0836Z" fill="url(#paint1_linear_7475_1502)" fill-opacity="0.4"/>
<g filter="url(#filter3_d_7475_1502)">
<g style="mix-blend-mode:difference" opacity="0.9">
<path d="M36.5483 51.6263C36.5152 52.0052 36.5152 52.3864 36.5483 52.7653C36.7313 53.6769 37.2385 54.4929 37.9773 55.0642L39.3191 56.1387C46.3351 61.3773 53.5881 66.3905 60.7551 71.3416L61.8392 71.9629C62.3101 72.2105 62.825 72.3648 63.3553 72.4173H63.5272C64.381 72.4169 65.211 72.1378 65.8892 71.623L72.5369 66.9802C74.7025 65.3684 77.04 63.7773 79.1847 62.1071C79.891 61.5469 80.5481 60.9283 81.1489 60.2577C82.8062 58.3338 83.8448 55.9614 84.1309 53.4464C84.1309 52.6289 84.2352 51.7054 84.2352 50.7381V45.904C84.2451 45.8109 84.2451 45.717 84.2352 45.6238V45.7103C84.2171 46.6665 84.057 47.6147 83.7601 48.5245C82.9094 51.1139 81.255 53.3697 79.0337 54.9692C74.8314 57.9978 70.6107 61.0289 66.3017 63.9503L65.3196 64.5095C64.8434 64.7499 64.3168 64.8751 63.7825 64.875H63.5235C63.2609 64.8649 63.0005 64.824 62.7476 64.7531C62.5497 64.7017 62.3591 64.6256 62.1805 64.5265L60.6434 63.6189C55.4873 60.1095 50.3803 56.5278 45.3223 52.8738L38.6746 47.8788L37.6998 46.9712C37.2716 46.5379 36.9864 45.9855 36.8822 45.3875V45.156C36.8135 45.156 36.5483 51.6263 36.5483 51.6263Z" fill="url(#paint2_linear_7475_1502)" fill-opacity="0.4"/>
</g>
</g>
<g style="mix-blend-mode:difference">
<path d="M83.779 65.0044C83.8552 64.7778 83.9607 64.4525 84.07 64.1333V68.4448C84.0678 69.2659 84.0034 70.0857 83.8773 70.8972V70.8972C83.4551 73.718 82.0251 76.2941 79.8481 78.1556L77.8839 79.7638C75.636 81.4352 73.3244 83.0446 70.9869 84.6539L65.9719 88.1065L65.5288 88.3587C64.9687 88.7157 64.3161 88.9036 63.6505 88.8996V88.8996C63.2588 88.9034 62.8698 88.8361 62.5026 88.701V88.701C61.9731 88.5223 61.4733 88.2665 61.0196 87.942V87.942L45.8679 77.4405L38.3792 71.8998C37.9473 71.5965 37.5822 71.2089 37.3063 70.7607C37.0311 70.3185 36.8498 69.8252 36.7735 69.311C36.7526 69.0084 36.7526 68.7047 36.7735 68.4021V63.2854C36.8608 63.4811 36.9691 63.6669 37.0963 63.8397V63.8397C37.4498 64.2575 37.8581 64.6263 38.3105 64.9362L43.2211 68.5849C47.9304 72.0423 52.7113 75.3967 57.5638 78.6478L60.7041 80.7944L62.0459 81.5022H62.0729C62.6217 81.7157 63.2132 81.7992 63.8002 81.7459V81.7459C64.3857 81.6936 64.9511 81.5081 65.4527 81.2038L66.0788 80.8626H66.0886L78.6475 71.9692C79.7417 71.1882 80.7149 70.2524 81.5361 69.1916C82.5329 67.942 83.2929 66.5233 83.779 65.0044V65.0044Z" fill="url(#paint3_linear_7475_1502)" fill-opacity="0.4"/>
</g>
<g filter="url(#filter4_d_7475_1502)">
<g style="mix-blend-mode:difference" opacity="0.9">
<g style="mix-blend-mode:difference" opacity="0.9">
<path d="M83.7869 65.0038C83.863 64.7772 83.9686 64.4519 84.0778 64.1327V68.4442C84.0757 69.2653 84.0112 70.0851 83.8851 70.8966V70.8966C83.4629 73.7173 82.0329 76.2935 79.8559 78.155L77.8917 79.7632C75.6438 81.4346 73.3322 83.044 70.9947 84.6533L65.9798 88.1059L65.5366 88.3581C64.9765 88.715 64.3239 88.903 63.6583 88.899V88.899C63.2667 88.9028 62.8776 88.8355 62.5104 88.7004V88.7004C61.9809 88.5217 61.4811 88.2659 61.0274 87.9414V87.9414L45.8757 77.4399L38.387 71.8992C37.9551 71.5958 37.59 71.2083 37.3141 70.7601C37.0389 70.3179 36.8576 69.8246 36.7813 69.3104C36.7604 69.0078 36.7604 68.7041 36.7813 68.4015V63.2848C36.8686 63.4805 36.9769 63.6663 37.1042 63.8391V63.8391C37.4576 64.2569 37.8659 64.6257 38.3183 64.9355L43.2289 68.5843C47.9382 72.0417 52.7191 75.396 57.5716 78.6472L60.7119 80.7938L62.0537 81.5016H62.0807C62.6296 81.7151 63.221 81.7986 63.808 81.7453V81.7453C64.3935 81.693 64.9589 81.5075 65.4605 81.2031L66.0866 80.862H66.0964L78.6553 71.9686C79.7496 71.1875 80.7228 70.2517 81.5439 69.191C82.5407 67.9414 83.3007 66.5227 83.7869 65.0038V65.0038Z" fill="url(#paint4_linear_7475_1502)" fill-opacity="0.4"/>
</g>
</g>
</g>
</g>
<defs>
<filter id="filter0_f_7475_1502" x="0.511719" y="0.734985" width="123.27" height="123.265" filterUnits="userSpaceOnUse" color-interpolation-filters="sRGB">
<feFlood flood-opacity="0" result="BackgroundImageFix"/>
<feBlend mode="normal" in="SourceGraphic" in2="BackgroundImageFix" result="shape"/>
<feGaussianBlur stdDeviation="1" result="effect1_foregroundBlur_7475_1502"/>
</filter>
<filter id="filter1_d_7475_1502" x="34.5234" y="45.156" width="49.7188" height="29.2614" filterUnits="userSpaceOnUse" color-interpolation-filters="sRGB">
<feFlood flood-opacity="0" result="BackgroundImageFix"/>
<feColorMatrix in="SourceAlpha" type="matrix" values="0 0 0 0 0 0 0 0 0 0 0 0 0 0 0 0 0 0 127 0" result="hardAlpha"/>
<feOffset dx="-1" dy="1"/>
<feGaussianBlur stdDeviation="0.5"/>
<feComposite in2="hardAlpha" operator="out"/>
<feColorMatrix type="matrix" values="0 0 0 0 0.0980392 0 0 0 0 0.105882 0 0 0 0 0.113725 0 0 0 0.55 0"/>
<feBlend mode="normal" in2="BackgroundImageFix" result="effect1_dropShadow_7475_1502"/>
<feBlend mode="normal" in="SourceGraphic" in2="effect1_dropShadow_7475_1502" result="shape"/>
</filter>
<filter id="filter2_d_7475_1502" x="34.7656" y="63.2848" width="49.3125" height="27.6144" filterUnits="userSpaceOnUse" color-interpolation-filters="sRGB">
<feFlood flood-opacity="0" result="BackgroundImageFix"/>
<feColorMatrix in="SourceAlpha" type="matrix" values="0 0 0 0 0 0 0 0 0 0 0 0 0 0 0 0 0 0 127 0" result="hardAlpha"/>
<feOffset dx="-1" dy="1"/>
<feGaussianBlur stdDeviation="0.5"/>
<feComposite in2="hardAlpha" operator="out"/>
<feColorMatrix type="matrix" values="0 0 0 0 0.0965366 0 0 0 0 0.105884 0 0 0 0 0.112652 0 0 0 0.55 0"/>
<feBlend mode="normal" in2="BackgroundImageFix" result="effect1_dropShadow_7475_1502"/>
<feBlend mode="normal" in="SourceGraphic" in2="effect1_dropShadow_7475_1502" result="shape"/>
</filter>
<filter id="filter3_d_7475_1502" x="34.5234" y="45.156" width="49.7188" height="29.2614" filterUnits="userSpaceOnUse" color-interpolation-filters="sRGB">
<feFlood flood-opacity="0" result="BackgroundImageFix"/>
<feColorMatrix in="SourceAlpha" type="matrix" values="0 0 0 0 0 0 0 0 0 0 0 0 0 0 0 0 0 0 127 0" result="hardAlpha"/>
<feOffset dx="-1" dy="1"/>
<feGaussianBlur stdDeviation="0.5"/>
<feComposite in2="hardAlpha" operator="out"/>
<feColorMatrix type="matrix" values="0 0 0 0 0.0980392 0 0 0 0 0.105882 0 0 0 0 0.113725 0 0 0 0.55 0"/>
<feBlend mode="normal" in2="BackgroundImageFix" result="effect1_dropShadow_7475_1502"/>
<feBlend mode="normal" in="SourceGraphic" in2="effect1_dropShadow_7475_1502" result="shape"/>
</filter>
<filter id="filter4_d_7475_1502" x="34.7656" y="63.2848" width="49.3125" height="27.6144" filterUnits="userSpaceOnUse" color-interpolation-filters="sRGB">
<feFlood flood-opacity="0" result="BackgroundImageFix"/>
<feColorMatrix in="SourceAlpha" type="matrix" values="0 0 0 0 0 0 0 0 0 0 0 0 0 0 0 0 0 0 127 0" result="hardAlpha"/>
<feOffset dx="-1" dy="1"/>
<feGaussianBlur stdDeviation="0.5"/>
<feComposite in2="hardAlpha" operator="out"/>
<feColorMatrix type="matrix" values="0 0 0 0 0.0965366 0 0 0 0 0.105884 0 0 0 0 0.112652 0 0 0 0.55 0"/>
<feBlend mode="normal" in2="BackgroundImageFix" result="effect1_dropShadow_7475_1502"/>
<feBlend mode="normal" in="SourceGraphic" in2="effect1_dropShadow_7475_1502" result="shape"/>
</filter>
<linearGradient id="paint0_linear_7475_1502" x1="17.2027" y1="14.1622" x2="90.1758" y2="127.068" gradientUnits="userSpaceOnUse">
<stop stop-color="#0EBE8A" stop-opacity="0.42"/>
<stop offset="0.96875" stop-color="#59BF94" stop-opacity="0.4"/>
</linearGradient>
<linearGradient id="paint1_linear_7475_1502" x1="45.8709" y1="34.8491" x2="46.2447" y2="47.7456" gradientUnits="userSpaceOnUse">
<stop/>
<stop offset="0.476489" stop-opacity="0.51"/>
</linearGradient>
<linearGradient id="paint2_linear_7475_1502" x1="34.5351" y1="45.043" x2="35.6912" y2="73.9502" gradientUnits="userSpaceOnUse">
<stop/>
<stop offset="0.476489" stop-opacity="0.51"/>
</linearGradient>
<linearGradient id="paint3_linear_7475_1502" x1="34.7865" y1="63.1792" x2="35.816" y2="90.3445" gradientUnits="userSpaceOnUse">
<stop/>
<stop offset="0.476489" stop-opacity="0.51"/>
</linearGradient>
<linearGradient id="paint4_linear_7475_1502" x1="34.7943" y1="63.1786" x2="35.8239" y2="90.3438" gradientUnits="userSpaceOnUse">
<stop/>
<stop offset="0.476489" stop-opacity="0.51"/>
</linearGradient>
<clipPath id="clip0_7475_1502">
<rect width="122.89" height="122.89" fill="white"/>
</clipPath>
</defs>
</svg>
