<svg width="491" height="437" viewBox="0 0 491 437" fill="none" xmlns="http://www.w3.org/2000/svg">
<path d="M249.104 372.982C186.565 373.363 129.97 335.975 105.777 278.304C81.5838 220.632 94.558 154.065 138.653 109.707C182.74 65.3485 249.231 51.9672 307.047 75.8126C364.863 99.6581 402.59 156.024 402.59 218.563C402.734 303.54 334.081 372.609 249.104 372.982ZM249.104 6.31152C163.262 5.86209 85.6203 57.2332 52.4639 136.41C19.2991 215.595 37.1662 306.957 97.7041 367.817C158.25 428.677 249.519 447.019 328.874 414.27C408.229 381.521 459.999 304.15 459.999 218.309C459.999 101.651 365.753 6.92207 249.104 6.31152Z" fill="#18B74E"/>
<path d="M55.0898 354.049L116.478 412.642L445.275 81.3919L382.018 25.1484L55.0898 354.049Z" fill="#18B74E"/>
</svg>
