<svg width="491" height="437" viewBox="0 0 491 437" fill="none" xmlns="http://www.w3.org/2000/svg">
<g clip-path="url(#clip0_7545_295)">
<path d="M451 323.708C451 327.292 451 330.875 449.136 334.458C445.409 339.833 439.818 343.417 434.227 343.417C434.227 343.417 434.227 343.417 432.364 343.417L255.318 431.208C251.591 433 249.727 433 246 433C244.136 433 244.136 433 242.273 433C242.273 433 242.273 433 240.409 433C238.545 433 236.682 433 234.818 431.208L59.6364 343.417H57.7727C52.1818 343.417 46.5909 339.833 42.8636 334.458C41 330.875 41 327.292 41 325.5V323.708V114.083V112.292V110.5C41 106.917 41 105.125 42.8636 101.542C44.7272 99.75 46.5909 96.1667 50.3182 96.1667C52.1818 96.1667 52.1818 94.375 54.0454 94.375H55.9091H59.6364L236.682 6.58333C238.545 3 242.273 3 244.136 3H246C246 3 246 3 247.864 3C251.591 3 253.455 3 257.182 4.79167L434.227 92.5833C437.955 92.5833 439.818 94.375 443.545 96.1667H445.409L447.273 97.9583L449.136 99.75C451 101.542 451 103.333 451 105.125V110.5V320.125V323.708ZM78.2727 293.25L108.091 275.333C115.545 269.958 126.727 273.542 132.318 282.5C137.909 291.458 134.182 302.208 126.727 307.583L96.9091 325.5L227.364 390V235.917L197.545 253.833C190.091 259.208 178.909 255.625 173.318 246.667C167.727 237.708 171.455 226.958 178.909 221.583L208.727 203.667L78.2727 139.167V293.25ZM264.636 47.7917V74.6667C264.636 85.4167 257.182 92.5833 246 92.5833C234.818 92.5833 227.364 85.4167 227.364 74.6667V47.7917L100.636 110.5L227.364 173.208V146.333C227.364 135.583 234.818 128.417 246 128.417C257.182 128.417 264.636 135.583 264.636 146.333V173.208L391.364 110.5L264.636 47.7917ZM413.727 137.375L283.273 201.875L313.091 219.792C320.545 225.167 324.273 235.917 318.682 244.875C313.091 253.833 303.773 255.625 294.455 252.042L264.636 234.125V390L395.091 325.5L365.273 307.583C357.818 300.417 354.091 289.667 359.682 280.708C365.273 271.75 374.591 269.958 383.909 273.542L413.727 291.458V137.375Z" fill="#6166DC"/>
</g>
<defs>
<clipPath id="clip0_7545_295">
<rect width="410" height="430" fill="white" transform="translate(41 3)"/>
</clipPath>
</defs>
</svg>
