<svg width="491" height="437" viewBox="0 0 491 437" fill="none" xmlns="http://www.w3.org/2000/svg">
<path d="M478.999 322.311C478.999 322.311 407.715 311.75 370.046 308.721C333.872 305.815 291.006 304.137 245.018 304.137C199.03 304.137 156.163 305.815 119.999 308.721C82.3208 311.791 11.0469 326.445 11.0469 326.445V344.865C11.0469 361.238 115.804 374.541 245.018 374.541C374.232 374.541 478.989 361.238 478.989 344.865L478.999 322.311Z" fill="#F0D50C"/>
<path d="M173.09 77.9961C87.6527 108.438 30.5986 189.33 30.5938 280.029V310.401C61.0824 303.117 92.1681 298.61 123.47 296.934C123.258 291.108 123.149 285.238 123.142 279.323C123.173 199.627 142.411 127.913 173.09 77.9961Z" fill="#F0D50C"/>
<path d="M459.457 280.025C459.53 230.258 442.218 182.028 410.512 143.668C424.257 187.569 431.106 233.337 430.814 279.339C430.814 287.71 430.599 295.985 430.17 304.165C439.927 305.667 449.592 307.716 459.119 310.305L459.457 280.025Z" fill="#FFF04D"/>
<path d="M459.457 280.025C459.53 230.258 442.218 182.028 410.512 143.668C424.257 187.569 431.106 233.337 430.814 279.339C430.814 287.71 430.599 295.985 430.17 304.165C439.927 305.667 449.592 307.716 459.119 310.305L459.457 280.025Z" fill="#FFEA00"/>
<path d="M410.505 143.657C353.055 74.0162 258.167 47.7707 173.096 77.9907C142.396 127.908 123.168 199.622 123.168 279.328C123.168 285.243 123.277 291.113 123.495 296.939C155.423 294.473 192.385 292.948 231.967 292.672C231.967 292.672 240.962 292.672 245.045 292.672C306.958 291.929 368.841 295.784 430.183 304.205C430.599 296.018 430.814 287.743 430.828 279.379C431.118 233.359 424.262 187.573 410.505 143.657Z" fill="#FFF04D"/>
<path d="M331.278 157.841L317.688 72.9054C316.723 66.6565 312.245 61.5219 306.186 59.7149C266.59 48.095 224.489 48.095 184.892 59.7149C178.837 61.5252 174.364 66.6591 173.401 72.9054L159.801 157.841" fill="#FFF04D"/>
<path d="M245.043 290.875C240.95 290.875 236.887 290.875 232.855 290.875H232.405H231.955C108.819 291.735 11.0619 304.669 11.0619 320.5V343.443C10.8624 344.787 11.149 346.159 11.8703 347.311C18.1241 342.614 25.3125 339.313 32.9506 337.63C52.4033 332.897 72.1749 329.586 92.1084 327.725C103.429 326.483 114.737 330.174 123.146 337.855C138.541 351.95 158.658 359.766 179.53 359.765H310.515C331.387 359.765 351.503 351.949 366.899 337.855C375.307 330.165 386.62 326.47 397.947 327.714C417.877 329.576 437.645 332.887 457.094 337.62C464.328 339.011 471.159 342 477.09 346.369C477.428 346.707 477.817 347.004 478.113 347.311C478.84 346.153 479.13 344.775 478.932 343.422V320.479C479.004 304.158 374.247 290.875 245.043 290.875Z" fill="#FFF04D"/>
<path d="M294.329 222.734L244.984 253.106V292.555L294.329 222.734Z" fill="#6E6F70"/>
<path d="M245.02 292.555V253.106L195.676 222.734L245.02 292.555Z" fill="#0A0A0A"/>
<path d="M195.676 204.715L245.02 233.245V124.906L195.676 204.715Z" fill="#0A0A0A"/>
<path d="M294.329 204.717L244.984 124.898V176.177V233.237L294.329 204.707V204.717Z" fill="#6E6F70"/>
</svg>
