<svg width="491" height="437" viewBox="0 0 491 437" fill="none" xmlns="http://www.w3.org/2000/svg">
<g clip-path="url(#clip0_7550_542)">
<path d="M455 8H35V428H455V8Z" fill="#2B50AA"/>
<path d="M188.529 303.095C189.428 303.918 190.551 304.368 191.6 304.368C192.648 304.368 193.846 303.918 194.671 303.095L205.006 293.209C205.905 292.384 206.429 291.186 206.429 289.987C206.429 288.789 205.905 287.591 205.006 286.767L133.257 218.238L205.006 149.71C205.905 148.886 206.429 147.687 206.429 146.489C206.429 145.29 205.905 144.093 205.006 143.269L194.671 133.383C193.772 132.559 192.724 132.109 191.6 132.109C190.476 132.109 189.353 132.559 188.529 133.383L102.999 215.018C102.1 215.842 101.576 217.04 101.576 218.238C101.576 219.436 102.1 220.635 102.999 221.459L188.529 303.095ZM357.567 218.238L285.817 286.767C284.919 287.591 284.395 288.789 284.395 289.987C284.395 291.186 284.919 292.384 285.817 293.209L296.153 303.095C297.052 303.918 298.176 304.368 299.224 304.368C300.272 304.368 301.471 303.918 302.294 303.095L387.825 221.459C388.723 220.635 389.247 219.436 389.247 218.238C389.247 217.04 388.723 215.842 387.825 215.018L302.294 133.383C301.396 132.559 300.272 132.109 299.224 132.109C298.1 132.109 296.977 132.559 296.153 133.383L285.817 143.269C284.919 144.093 284.395 145.29 284.395 146.489C284.395 147.687 284.919 148.886 285.817 149.71L357.567 218.238Z" fill="#C5D5EA"/>
<path d="M187.929 209.85C187.854 212.771 188.978 215.542 191.075 217.639L191.15 217.714C193.171 219.736 195.793 220.86 198.639 220.86C201.261 220.86 203.732 219.886 205.679 218.163L234.813 192.25V271.713C234.813 277.555 239.607 282.348 245.449 282.348C251.29 282.348 256.084 277.555 256.084 271.713V192.175L285.217 218.088C287.165 219.811 289.711 220.784 292.258 220.784C295.104 220.784 297.8 219.662 299.822 217.639L299.897 217.564C301.994 215.467 303.043 212.771 303.043 209.775C302.967 206.854 301.769 204.158 299.598 202.136L252.563 158.922C250.616 157.124 248.07 156.15 245.449 156.15C242.827 156.15 240.281 157.124 238.333 158.922L191.299 202.136C189.202 204.233 187.929 206.929 187.929 209.85Z" fill="#C5D5EA"/>
</g>
<defs>
<clipPath id="clip0_7550_542">
<rect width="420" height="420" fill="white" transform="translate(35 8)"/>
</clipPath>
</defs>
</svg>
