<svg width="491" height="437" viewBox="0 0 491 437" fill="none" xmlns="http://www.w3.org/2000/svg">
<path d="M245.129 430C360.861 430 454.68 335.084 454.68 218C454.68 100.916 360.861 6 245.129 6C129.397 6 35.5781 100.916 35.5781 218C35.5781 335.084 129.397 430 245.129 430Z" fill="#5E464D"/>
<path d="M179.235 405.985C187.807 408.911 216.595 418.272 217.82 409.119C218.484 404.096 203.291 398.949 182.721 388.052C153.467 372.59 126.704 352.817 103.33 329.396C69.2139 295.944 49.5965 250.433 48.7011 202.661C46.9577 138.525 72.0307 86.6771 113.273 53.2188C88.3696 72.4398 68.0688 96.9749 53.8498 125.036C39.6307 153.097 31.8516 183.977 31.0794 215.426C29.8549 261.815 42.8272 300.898 67.1946 336.473C74.7612 346.246 83.6061 354.959 93.4922 362.377C116.843 380.04 150.986 396.375 179.235 405.964" fill="white"/>
<path d="M457.568 169.409C444.575 108.304 404.184 65.5266 350.156 35.3061C391.398 64.7171 449.618 127.254 415.33 182.423C386.272 226.613 315.598 217.957 276.992 196.952C231.08 172.045 173.566 116.005 230.292 61.2094C267.009 25.7584 383.885 65.5058 363.316 118.495C351.319 149.318 304.618 142.468 283.613 127.4C268.129 116.275 255.095 97.1585 261.986 77.4197C264.207 71.0891 263.895 61.2716 254.949 68.4947C248.287 73.8912 244.924 82.7747 243.762 91.0355C233.986 160.132 357.089 213.702 393.598 146.848C412.569 112.144 381.851 61.749 343.182 41.1177C314.124 25.5509 283.862 14.6125 246.813 17.2693C187.535 21.4204 137.783 58.5734 131.556 119.139C125.329 179.331 165.575 233.503 212.96 265.903C262.774 299.943 329.733 322.38 391.004 302.081C445.924 283.878 468.61 220.842 457.568 169.389" fill="white"/>
<path d="M380.275 122.614C386.17 83.0118 350.366 55.8216 317.302 43.4719C278.323 28.9429 226.828 35.2941 198.434 67.5694C177.678 91.2726 179.027 125.686 189.737 153.54C205.927 195.612 242.478 226.019 285.027 239.158C315.247 248.498 351.819 252.566 382.455 242.707C427.142 228.323 441.692 181.726 432.456 139.032C430.478 129.802 427.441 120.831 423.406 112.298C417.76 100.447 400.575 76.4529 424.299 105.677C426.796 108.934 429.097 112.337 431.189 115.868C436.105 123.943 440.002 132.594 442.792 141.626C455.785 181.477 445.594 227.97 409.583 252.026C381.957 270.437 346.838 272.637 314.791 268.029C271.826 261.802 231.332 241.047 203.187 207.651C177.491 177.202 159.952 133.469 170.517 93.4935C178.259 64.2485 202.004 42.4134 230.439 33.3016C266.409 21.6576 305.99 27.0748 338.369 45.9834C354.6 55.4273 369.503 68.5035 377.702 85.6478C381.457 93.3711 383.476 101.823 383.617 110.409C383.7 113.887 383.428 117.364 382.808 120.787C382.579 122.033 379.943 125.54 380.317 122.655" fill="#3FE0C5"/>
</svg>
