<svg width="565" height="112" viewBox="0 0 565 112" fill="none" xmlns="http://www.w3.org/2000/svg">
<path d="M1 20.7988C1.18463 20.9872 1.5083 21.1599 1.53193 21.3666C1.76189 23.3793 3.01985 24.7307 4.54835 25.8119C18.5844 35.7405 32.6235 45.6649 46.7104 55.5214C50.1128 57.9021 52.8108 57.7644 56.1687 55.4036C63.8407 50.0093 71.5066 44.6061 79.162 39.1885C83.5025 36.1165 86.6682 32.1231 88.3238 27.066C88.9016 25.3012 89.1238 23.4215 89.3666 22.2685C89.3666 26.6742 89.6936 31.782 89.2834 36.8305C88.7776 43.0544 85.6419 48.1869 80.6332 51.8827C72.2902 58.0387 63.7826 63.9767 55.2708 69.9022C52.503 71.8291 49.5708 71.3245 46.8594 69.5636C44.0788 67.7575 41.3202 65.9135 38.6157 63.9969C27.4098 56.0542 16.2314 48.0727 5.03413 40.1179C3.11578 38.7549 1.60061 37.1439 1.25943 34.7077C1.2675 30.7496 1.28168 26.7911 1.27139 22.8329C1.27055 22.5323 1.09454 22.2322 1 21.9321C1 21.5544 1 21.1768 1 20.7988Z" fill="#3ECF8E"/>
<path d="M1 21.2012C1.18463 21.3896 1.5083 21.5622 1.53193 21.7689C1.76189 23.7817 3.01985 25.133 4.54835 26.2142C18.5844 36.1428 32.6235 46.0672 46.7104 55.9237C50.1128 58.3045 52.8108 58.1667 56.1687 55.806C63.8407 50.4116 71.5066 45.0085 79.1619 39.5909C83.5025 36.5188 86.6682 32.5254 88.3238 27.4683C88.9016 25.7036 89.1238 23.8238 89.3666 22.6708C89.3666 27.0765 89.6936 32.1843 89.2834 37.2329C88.7776 43.4568 85.6419 48.5892 80.6332 52.285C72.2902 58.4411 63.7826 64.379 55.2708 70.3045C52.503 72.2314 49.5708 71.7268 46.8594 69.9659C44.0788 68.1599 41.3202 66.3159 38.6157 64.3993C27.4098 56.4566 16.2314 48.4751 5.03413 40.5202C3.11578 39.1572 1.60061 37.5462 1.25943 35.1101C1.2675 31.1519 1.28168 27.1934 1.27139 23.2353C1.27055 22.9346 1.09454 22.6345 1 22.3345C1 21.9568 1 21.5791 1 21.2012Z" fill="#3ECF8E" fill-opacity="0.7"/>
<path d="M1.00028 52.7871C1.17685 52.9054 1.49412 53.0085 1.50885 53.144C1.75383 55.3884 3.26259 56.7434 4.9343 57.9595C11.3678 62.6395 17.7674 67.3671 24.2713 71.9488C31.472 77.0208 38.7661 81.9618 46.0324 86.9416C50.1958 89.7951 52.5057 89.807 56.663 86.9001C64.0372 81.7438 71.3655 76.5224 78.735 71.3588C83.1273 68.2815 86.456 64.3752 88.1825 59.2831C88.8234 57.3926 89.0837 55.3745 89.7755 53.4108C89.5853 58.8916 89.7493 64.4134 89.109 69.8418C88.423 75.6576 85.2172 80.4071 80.5107 83.864C72.2314 89.9453 63.7984 95.8217 55.377 101.71C52.4253 103.773 49.4162 103.161 46.6013 101.287C42.9354 98.8456 39.2772 96.3892 35.6866 93.8408C25.3371 86.4953 15.0235 79.0998 4.69517 71.7249C2.84911 70.4068 1.52915 68.7523 1.2433 66.4303C1.2561 62.4198 1.27389 58.4095 1.26916 54.3992C1.26889 54.1454 1.09371 53.8916 1 53.6378C1.00028 53.3538 1.00028 53.0706 1.00028 52.7871Z" fill="#3ECF8E"/>
<path d="M1.00028 52.3438C1.17685 52.4621 1.49412 52.5651 1.50885 52.7006C1.75383 54.945 3.26259 56.3 4.9343 57.5161C11.3678 62.1961 17.7674 66.9238 24.2713 71.5054C31.472 76.5775 38.7661 81.5185 46.0324 86.4983C50.1958 89.3517 52.5057 89.3636 56.663 86.4567C64.0372 81.3004 71.3655 76.079 78.735 70.9155C83.1273 67.8382 86.456 63.9318 88.1825 58.8398C88.8234 56.9492 89.0837 54.9312 89.7755 52.9675C89.5853 58.4482 89.7493 63.97 89.109 69.3984C88.423 75.2142 85.2172 79.9638 80.5107 83.4207C72.2314 89.5019 63.7984 95.3784 55.377 101.266C52.4253 103.33 49.4162 102.717 46.6013 100.843C42.9354 98.4022 39.2772 95.9458 35.6866 93.3975C25.3371 86.0519 15.0235 78.6565 4.69517 71.2815C2.84911 69.9634 1.52915 68.3089 1.2433 65.9869C1.2561 61.9764 1.27389 57.9661 1.26916 53.9558C1.26889 53.702 1.09371 53.4482 1 53.1944C1.00028 52.9104 1.00028 52.6272 1.00028 52.3438Z" fill="#3ECF8E"/>
<path d="M21.5312 19.7236C21.7712 19.4512 21.895 19.2406 22.0776 19.1132C26.5436 15.9979 30.9308 12.7601 35.5111 9.81996C40.2509 6.77755 45.4851 4.99117 51.2113 5.00003C56.5484 5.00835 61.3897 6.6983 65.7792 9.61796C67.9011 11.0294 69.9551 12.5872 71.8379 14.2985C74.8813 17.0647 75.1963 21.991 72.7747 25.3027C72.2336 26.0428 71.6705 26.0908 70.96 25.6181C69.974 24.9622 68.9955 24.2939 67.9923 23.6652C57.8617 17.3157 47.7294 17.3842 37.6002 23.6735C35.9905 24.6729 34.3966 25.6995 32.7566 26.6472C32.4274 26.8375 31.7981 26.9126 31.517 26.727C28.356 24.638 25.2345 22.4898 22.1091 20.3479C21.9216 20.2199 21.7915 20.0096 21.5312 19.7236Z" fill="#3ECF8E"/>
<path d="M1 20.7988C1.18463 20.9872 1.5083 21.1599 1.53193 21.3666C1.76189 23.3793 3.01985 24.7307 4.54835 25.8119C18.5844 35.7405 32.6235 45.6649 46.7104 55.5214C50.1128 57.9021 52.8108 57.7644 56.1687 55.4036C63.8407 50.0093 71.5066 44.6061 79.162 39.1885C83.5025 36.1165 86.6682 32.1231 88.3238 27.066C88.9016 25.3012 89.1238 23.4215 89.3666 22.2685C89.3666 26.6742 89.6936 31.782 89.2834 36.8305C88.7776 43.0544 85.6419 48.1869 80.6332 51.8827C72.2902 58.0387 63.7826 63.9767 55.2708 69.9022C52.503 71.8291 49.5708 71.3245 46.8594 69.5636C44.0788 67.7575 41.3202 65.9135 38.6157 63.9969C27.4098 56.0542 16.2314 48.0727 5.03413 40.1179C3.11578 38.7549 1.60061 37.1439 1.25943 34.7077C1.2675 30.7496 1.28168 26.7911 1.27139 22.8329C1.27055 22.5323 1.09454 22.2322 1 21.9321C1 21.5544 1 21.1768 1 20.7988Z" fill="url(#paint0_linear_7404_408)" fill-opacity="0.1"/>
<path d="M1 20.7598C1.18463 20.9482 1.5083 21.1208 1.53193 21.3275C1.76189 23.3403 3.01985 24.6916 4.54835 25.7728C18.5844 35.7014 32.6235 45.6258 46.7104 55.4823C50.1128 57.8631 52.8108 57.7253 56.1687 55.3646C63.8407 49.9702 71.5066 44.5671 79.1619 39.1495C83.5025 36.0774 86.6682 32.084 88.3238 27.0269C88.9016 25.2621 89.1238 23.3824 89.3666 22.2294C89.3666 26.6351 89.6936 31.7429 89.2834 36.7914C88.7776 43.0154 85.6419 48.1478 80.6332 51.8436C72.2902 57.9997 63.7826 63.9376 55.2708 69.8631C52.503 71.79 49.5708 71.2854 46.8594 69.5245C44.0788 67.7185 41.3202 65.8745 38.6157 63.9579C27.4098 56.0152 16.2314 48.0337 5.03413 40.0788C3.11578 38.7158 1.60061 37.1048 1.25943 34.6687C1.2675 30.7105 1.28168 26.752 1.27139 22.7939C1.27055 22.4932 1.09454 22.1931 1 21.8931C1 21.5154 1 21.1377 1 20.7598Z" fill="url(#paint1_linear_7404_408)" fill-opacity="0.1"/>
<path d="M1.00028 52.7871C1.17685 52.9054 1.49412 53.0085 1.50885 53.144C1.75383 55.3884 3.26259 56.7434 4.9343 57.9595C11.3678 62.6395 17.7674 67.3671 24.2713 71.9488C31.472 77.0208 38.7661 81.9618 46.0324 86.9416C50.1958 89.7951 52.5057 89.807 56.663 86.9001C64.0372 81.7438 71.3655 76.5224 78.735 71.3588C83.1273 68.2815 86.456 64.3752 88.1825 59.2831C88.8234 57.3926 89.0837 55.3745 89.7755 53.4108C89.5853 58.8916 89.7493 64.4134 89.109 69.8418C88.423 75.6576 85.2172 80.4071 80.5107 83.864C72.2314 89.9453 63.7984 95.8217 55.377 101.71C52.4253 103.773 49.4162 103.161 46.6013 101.287C42.9354 98.8456 39.2772 96.3892 35.6866 93.8408C25.3371 86.4953 15.0235 79.0998 4.69517 71.7249C2.84911 70.4068 1.52915 68.7523 1.2433 66.4303C1.2561 62.4198 1.27389 58.4095 1.26916 54.3992C1.26889 54.1454 1.09371 53.8916 1 53.6378C1.00028 53.3538 1.00028 53.0706 1.00028 52.7871Z" fill="url(#paint2_linear_7404_408)" fill-opacity="0.1"/>
<path d="M1.00028 52.3438C1.17685 52.4621 1.49412 52.5651 1.50885 52.7006C1.75383 54.945 3.26259 56.3 4.9343 57.5161C11.3678 62.1961 17.7674 66.9238 24.2713 71.5054C31.472 76.5775 38.7661 81.5185 46.0324 86.4983C50.1958 89.3517 52.5057 89.3636 56.663 86.4567C64.0372 81.3004 71.3655 76.079 78.735 70.9155C83.1273 67.8382 86.456 63.9318 88.1825 58.8398C88.8234 56.9492 89.0837 54.9312 89.7755 52.9675C89.5853 58.4482 89.7493 63.97 89.109 69.3984C88.423 75.2142 85.2172 79.9638 80.5107 83.4207C72.2314 89.5019 63.7984 95.3784 55.377 101.266C52.4253 103.33 49.4162 102.717 46.6013 100.843C42.9354 98.4022 39.2772 95.9458 35.6866 93.3975C25.3371 86.0519 15.0235 78.6565 4.69517 71.2815C2.84911 69.9634 1.52915 68.3089 1.2433 65.9869C1.2561 61.9764 1.27389 57.9661 1.26916 53.9558C1.26889 53.702 1.09371 53.4482 1 53.1944C1.00028 52.9104 1.00028 52.6272 1.00028 52.3438Z" fill="url(#paint3_linear_7404_408)" fill-opacity="0.1"/>
<path d="M21.5312 19.7236C21.7712 19.4512 21.895 19.2406 22.0776 19.1132C26.5436 15.9979 30.9308 12.7601 35.5111 9.81996C40.2509 6.77755 45.4851 4.99117 51.2113 5.00003C56.5484 5.00835 61.3897 6.6983 65.7792 9.61796C67.9011 11.0294 69.9551 12.5872 71.8379 14.2985C74.8813 17.0647 75.1963 21.991 72.7747 25.3027C72.2336 26.0428 71.6705 26.0908 70.96 25.6181C69.974 24.9622 68.9955 24.2939 67.9923 23.6652C57.8617 17.3157 47.7294 17.3842 37.6002 23.6735C35.9905 24.6729 34.3966 25.6995 32.7566 26.6472C32.4274 26.8375 31.7981 26.9126 31.517 26.727C28.356 24.638 25.2345 22.4898 22.1091 20.3479C21.9216 20.2199 21.7915 20.0096 21.5312 19.7236Z" fill="url(#paint4_linear_7404_408)" fill-opacity="0.1"/>
<path d="M493.648 3.00074C495.862 3.40995 498.095 3.73515 500.286 4.24396C507.265 5.86516 513.42 8.98343 517.943 14.6851C519.206 16.277 520.389 18.1773 520.837 20.114C521.624 23.5185 519.636 27.0935 516.662 28.7285C513.56 30.4337 509.44 30.1204 506.717 27.9569C505.361 26.8795 504.113 25.6374 502.661 24.7138C496.123 20.5567 489.252 20.24 482.293 23.4795C479.402 24.8253 477.441 27.1452 477.029 30.4969C476.681 33.3334 477.503 35.7957 480.009 37.1816C482.518 38.5694 485.197 39.8219 487.956 40.5534C494.596 42.3139 501.352 43.6549 507.671 46.4684C514.085 49.3243 519.439 53.3892 522.561 59.8677C527.037 69.1571 524.585 82.1523 516.919 90.0138C510.505 96.5915 502.597 99.9573 493.508 100.541C482.126 101.272 472.085 97.9399 463.631 90.1937C460.82 87.6176 458.621 84.5581 457.197 81.0128C455.898 77.7797 455.976 74.5659 458.276 71.7959C460.484 69.1366 463.358 67.6775 466.922 68.4342C470.006 69.089 472.147 71.199 473.784 73.7066C479.67 82.7217 491.828 84.3459 499.764 80.5003C501.702 79.5614 503.54 77.9956 504.855 76.283C508.01 72.1713 506.829 66.8784 502.399 64.1671C498.417 61.7301 493.87 60.9016 489.412 59.897C483.476 58.5594 477.692 56.8594 472.338 53.8872C453.561 43.4642 455.145 20.7715 469.743 9.9728C474.911 6.14986 480.711 4.02617 487.07 3.31814C487.433 3.27801 487.78 3.1089 488.135 3C489.972 3.00074 491.81 3.00074 493.648 3.00074Z" fill="black"/>
<path d="M130.002 51.602C130.002 38.8662 130.001 26.1304 130.003 13.3945C130.004 7.52854 133.663 3.86467 139.539 3.86728C145.459 3.86988 151.381 3.79629 157.299 3.93157C179.121 4.43072 198.664 20.9036 202.859 42.2517C208.169 69.275 190.638 94.6084 163.431 98.9599C158.931 99.6794 154.293 99.6088 149.714 99.7397C145.892 99.8489 142.048 99.9158 138.239 99.6467C133.239 99.2937 130.011 95.5789 130.007 90.5737C129.995 77.5832 130.002 64.5928 130.002 51.602ZM148.409 81.7396C152.605 81.485 156.755 81.5593 160.796 80.9316C178.089 78.244 189.084 61.4664 184.572 44.5909C180.33 28.722 165.863 20.3536 148.409 22.4449C148.409 42.0833 148.409 61.7221 148.409 81.7396Z" fill="black"/>
<path d="M335.257 81.5809C342.22 81.5809 349.054 81.5809 355.889 81.5809C358.748 81.5809 361.606 81.5631 364.465 81.585C369.633 81.624 373.523 85.5711 373.513 90.7391C373.503 95.8666 369.684 99.7642 364.548 99.7746C351.735 99.801 338.922 99.8036 326.108 99.7735C320.628 99.7605 316.854 95.9751 316.852 90.5414C316.841 64.7601 316.842 38.9785 316.85 13.1972C316.852 7.76128 320.74 3.89486 326.235 3.88631C338.895 3.86661 351.555 3.87144 364.216 3.88408C369.5 3.88965 373.483 7.80439 373.513 12.9698C373.543 18.2099 369.718 22.0886 364.33 22.1187C355.243 22.1692 346.156 22.1328 337.07 22.1328C336.51 22.1328 335.95 22.1328 335.284 22.1328C335.284 29.058 335.284 35.9141 335.284 43.0111C335.783 43.0111 336.316 43.0111 336.85 43.0111C343.18 43.0111 349.51 43.0036 355.84 43.0133C361.009 43.0211 364.855 46.8307 364.887 51.9503C364.918 56.9749 361.129 60.7963 355.97 60.8327C349.64 60.8773 343.31 60.8435 336.98 60.8435C336.43 60.8435 335.88 60.8435 335.257 60.8435C335.257 67.7959 335.257 74.5996 335.257 81.5809Z" fill="black"/>
<path d="M283.375 20.8989C280.476 20.8989 277.632 20.8989 274.788 20.8989C272.491 20.8989 270.194 20.9153 267.898 20.8941C265.76 20.874 264.758 19.9319 264.738 17.8509C264.704 14.3368 264.708 10.8216 264.736 7.30716C264.753 5.31281 265.64 4.48214 267.689 4.48102C278.1 4.4747 288.51 4.47582 298.922 4.47991C301.23 4.48102 301.906 5.20131 301.907 7.68105C301.913 19.3454 301.91 31.0097 301.91 42.674C301.91 51.6386 301.871 60.6039 301.921 69.568C301.968 77.8182 299.783 85.211 294.033 91.3773C288.401 97.4176 281.489 100.683 273.248 100.976C260.995 101.413 251.735 95.8678 244.595 86.3193C243.221 84.4814 243.747 82.6867 245.748 81.61C248.751 79.9947 251.76 78.3932 254.774 76.8003C256.959 75.6455 258.316 75.9413 259.826 77.8654C263.153 82.102 269.481 84.1094 274.695 82.5819C279.956 81.0402 283.42 76.5769 283.461 70.5139C283.572 54.1644 283.492 37.8138 283.485 21.4635C283.485 21.3639 283.447 21.265 283.375 20.8989Z" fill="black"/>
<path d="M427.064 22.1826C427.064 22.8345 427.064 23.4422 427.064 24.0495C427.064 46.1569 427.066 68.2638 427.062 90.3712C427.061 96.3758 422.537 100.382 416.59 99.665C412.117 99.1261 409.07 95.4883 409.048 90.5819C409.021 84.9278 409.041 79.2737 409.041 73.6195C409.041 57.0645 409.041 40.5098 409.041 23.9547C409.041 23.3567 409.041 22.7591 409.041 22.0172C408.386 22.0172 407.889 22.0172 407.392 22.0172C402.288 22.0172 397.185 22.0325 392.081 22.0132C386.666 21.9927 382.897 18.2393 382.906 12.9156C382.916 7.66914 386.676 3.89265 391.995 3.88671C409.398 3.86775 426.802 3.86961 444.205 3.88559C449.507 3.89042 453.421 7.81929 453.406 13.0367C453.39 18.1872 449.521 21.9871 444.22 22.0124C438.657 22.0388 433.094 22.0265 427.531 22.0358C427.438 22.0362 427.345 22.092 427.064 22.1826Z" fill="black"/>
<path d="M233.818 51.943C233.818 64.8286 233.829 77.7143 233.812 90.5999C233.807 94.5696 231.601 97.7886 228.047 99.1548C224.471 100.53 220.357 99.6075 217.797 96.8342C216.283 95.194 215.5 93.2279 215.499 91.0113C215.484 64.8836 215.473 38.756 215.504 12.6284C215.51 7.62761 219.488 3.87714 224.573 3.87305C229.861 3.86896 233.796 7.69525 233.808 12.9814C233.839 25.9681 233.818 38.956 233.818 51.943Z" fill="black"/>
<defs>
<linearGradient id="paint0_linear_7404_408" x1="36.8843" y1="37.2348" x2="38.4841" y2="68.0231" gradientUnits="userSpaceOnUse">
<stop/>
<stop offset="1" stop-opacity="0"/>
</linearGradient>
<linearGradient id="paint1_linear_7404_408" x1="36.8843" y1="37.1957" x2="38.4841" y2="67.984" gradientUnits="userSpaceOnUse">
<stop/>
<stop offset="1" stop-opacity="0"/>
</linearGradient>
<linearGradient id="paint2_linear_7404_408" x1="37" y1="69.1832" x2="38.587" y2="99.8978" gradientUnits="userSpaceOnUse">
<stop/>
<stop offset="1" stop-opacity="0"/>
</linearGradient>
<linearGradient id="paint3_linear_7404_408" x1="37" y1="68.7399" x2="38.587" y2="99.4544" gradientUnits="userSpaceOnUse">
<stop/>
<stop offset="1" stop-opacity="0"/>
</linearGradient>
<linearGradient id="paint4_linear_7404_408" x1="42.9634" y1="12.1295" x2="43.468" y2="25.5016" gradientUnits="userSpaceOnUse">
<stop/>
<stop offset="1" stop-opacity="0"/>
</linearGradient>
</defs>
</svg>
