<svg width="446" height="149" viewBox="0 0 446 149" fill="none" xmlns="http://www.w3.org/2000/svg">
<g clip-path="url(#clip0_7470_380)">
<path d="M445.5 0H0V149H445.5V0Z" fill="#1C1C1C"/>
<path d="M308.57 3.25H284.57V27.25H308.57V3.25Z" stroke="#262626"/>
<path d="M140.57 3.25H116.57V27.25H140.57V3.25Z" stroke="#262626"/>
<path d="M116.57 3.25H92.5703V27.25H116.57V3.25Z" stroke="#262626"/>
<path d="M332.57 3.25H308.57V27.25H332.57V3.25Z" stroke="#262626"/>
<path d="M164.57 3.25H140.57V27.25H164.57V3.25Z" stroke="#262626"/>
<path d="M284.57 3.25H260.57V27.25H284.57V3.25Z" stroke="#262626"/>
<path d="M308.57 27.25H284.57V51.25H308.57V27.25Z" stroke="#262626"/>
<path d="M116.57 75.25H92.5703V99.25H116.57V75.25Z" stroke="#262626"/>
<path d="M92.5703 51.25H68.5703V75.25H92.5703V51.25Z" stroke="#262626"/>
<path d="M44.5703 51.25H20.5703V75.25H44.5703V51.25Z" stroke="#262626"/>
<path d="M68.5703 51.25H44.5703V75.25H68.5703V51.25Z" stroke="#262626"/>
<path d="M116.57 27.25H92.5703V51.25H116.57V27.25Z" stroke="#262626"/>
<path d="M92.5703 27.25H68.5703V51.25H92.5703V27.25Z" stroke="#3E3E3E"/>
<path d="M332.57 27.25H308.57V51.25H332.57V27.25Z" stroke="#262626"/>
<path d="M380.57 51.25H356.57V75.25H380.57V51.25Z" stroke="#262626"/>
<path d="M406.422 25.75H382.422V49.75H406.422V25.75Z" stroke="#262626"/>
<path d="M380.57 3.25H356.57V27.25H380.57V3.25Z" stroke="#262626"/>
<path d="M164.57 27.25H140.57V51.25H164.57V27.25Z" stroke="#262626"/>
<path d="M260.57 27.25H236.57V51.25H260.57V27.25Z" stroke="#3E3E3E"/>
<path d="M236.57 51.25H212.57V75.25H236.57V51.25Z" stroke="#262626"/>
<path d="M212.57 51.25H188.57V75.25H212.57V51.25Z" stroke="#262626"/>
<path d="M212.57 27.25H188.57V51.25H212.57V27.25Z" stroke="#262626"/>
<path d="M188.57 27.25H164.57V51.25H188.57V27.25Z" stroke="#262626"/>
<path d="M188.57 51.25H164.57V75.25H188.57V51.25Z" stroke="#262626"/>
<path d="M86.4219 -23H54.4219V9H86.4219V-23Z" stroke="#262626"/>
<path d="M197.949 63.75H172.57C168.428 63.75 165.07 67.1079 165.07 71.25V96.6289C165.07 100.771 168.428 104.129 172.57 104.129H197.949C202.091 104.129 205.449 100.771 205.449 96.6289V71.25C205.449 67.1079 202.091 63.75 197.949 63.75Z" fill="#343434" stroke="#3E3E3E"/>
<g opacity="0.7">
<path d="M181.57 75.72L180.203 76.6436C180.095 76.7519 180.062 76.8192 180.203 76.9189L180.336 77.0272L182.16 78.3011C182.16 78.3011 183.97 77.3174 184.357 77.1518C185.037 76.8462 185.775 76.6899 186.521 76.6932C187.026 76.7271 187.527 76.8032 188.02 76.9207C188.649 77.1018 189.245 77.383 189.785 77.7537L190.299 78.095C190.318 78.1139 190.341 78.1293 190.366 78.1405C190.391 78.1514 190.418 78.1569 190.445 78.1568C190.473 78.1569 190.5 78.1513 190.525 78.1405C190.55 78.1296 190.572 78.1142 190.591 78.095C190.612 78.0797 190.629 78.0598 190.641 78.0367C190.756 77.8579 190.848 77.6648 190.913 77.4621C190.956 77.3016 190.978 77.1361 190.979 76.9698C190.98 76.7322 190.932 76.4971 190.838 76.2791C190.743 76.0612 190.605 75.8653 190.432 75.7037L190.082 75.3961C189.66 74.9893 189.175 74.6532 188.647 74.4006L188.246 74.1996C187.54 73.9326 186.791 73.7972 186.037 73.8001C185.213 73.8297 183.827 74.2 181.57 75.72Z" fill="#B5B5B5"/>
<path opacity="0.9" d="M176.197 79.995C176.184 80.1353 176.184 80.2765 176.197 80.4169C176.264 80.7545 176.452 81.0567 176.726 81.2683L177.223 81.6662C179.821 83.6064 182.508 85.4631 185.162 87.2968L185.564 87.5269C185.738 87.6186 185.929 87.6758 186.125 87.6952H186.189C186.505 87.6951 186.812 87.5917 187.064 87.401L189.526 85.6815C190.328 85.0846 191.193 84.4953 191.988 83.8767C192.249 83.6692 192.493 83.4401 192.715 83.1918C193.329 82.4792 193.714 81.6006 193.82 80.6691C193.82 80.3663 193.858 80.0243 193.858 79.666V77.8757C193.862 77.8412 193.862 77.8064 193.858 77.7719V77.8039C193.851 78.1581 193.792 78.5093 193.682 78.8462C193.367 79.8052 192.754 80.6407 191.932 81.2331C190.375 82.3548 188.812 83.4774 187.216 84.5594L186.853 84.7665C186.676 84.8555 186.481 84.9019 186.283 84.9018H186.187C186.09 84.8981 185.994 84.8829 185.9 84.8567C185.827 84.8377 185.756 84.8095 185.69 84.7728L185.121 84.4366C183.211 83.1369 181.32 81.8103 179.446 80.457L176.984 78.6071L176.623 78.2709C176.465 78.1104 176.359 77.9059 176.32 77.6844V77.5986C176.295 77.5986 176.197 79.995 176.197 79.995Z" fill="url(#paint0_radial_7470_380)"/>
<path opacity="0.9" d="M193.688 84.9501C193.717 84.8662 193.756 84.7457 193.796 84.6275V86.2243C193.795 86.5284 193.771 86.832 193.725 87.1326V87.1326C193.568 88.1773 193.039 89.1314 192.233 89.8209L191.505 90.4165C190.673 91.0355 189.816 91.6316 188.951 92.2276L187.093 93.5063L186.929 93.5997C186.722 93.7319 186.48 93.8015 186.233 93.8V93.8C186.088 93.8014 185.944 93.7765 185.808 93.7265V93.7265C185.612 93.6603 185.427 93.5656 185.259 93.4454V93.4454L179.647 89.556L176.874 87.5039C176.714 87.3916 176.579 87.248 176.477 87.0821C176.375 86.9183 176.307 86.7356 176.279 86.5451C176.272 86.4331 176.272 86.3206 176.279 86.2085V84.3135C176.312 84.386 176.352 84.4548 176.399 84.5188V84.5188C176.53 84.6735 176.681 84.8101 176.848 84.9249L178.667 86.2762C180.411 87.5567 182.182 88.799 183.979 90.0032L185.142 90.7982L185.639 91.0603H185.649C185.852 91.1394 186.072 91.1703 186.289 91.1506V91.1506C186.506 91.1312 186.715 91.0625 186.901 90.9498L187.133 90.8234H187.136L191.788 87.5297C192.193 87.2404 192.554 86.8938 192.858 86.5009C193.227 86.0381 193.508 85.5127 193.688 84.9501V84.9501Z" fill="url(#paint1_radial_7470_380)"/>
</g>
<path d="M374.418 93.8799H349.039C344.897 93.8799 341.539 97.2377 341.539 101.38V126.759C341.539 130.901 344.897 134.259 349.039 134.259H374.418C378.56 134.259 381.918 130.901 381.918 126.759V101.38C381.918 97.2377 378.56 93.8799 374.418 93.8799Z" fill="#343434" stroke="#3E3E3E"/>
<g opacity="0.75">
<path d="M354 114V106.778V106.632C354 105.178 355.178 104 356.632 104C358.002 104 359.113 105.111 359.113 106.481V113.6C359.113 113.821 359.292 114 359.513 114H365.759V110.558C365.759 110.196 366.201 110.02 366.449 110.282L372.483 116.636C372.632 116.792 372.63 117.039 372.478 117.192L366.444 123.306C366.193 123.561 365.759 123.383 365.759 123.025V119.556H363.203H354.8C354.358 119.556 354 119.197 354 118.756V114Z" fill="white"/>
</g>
<path d="M129.254 99.4814H103.875C99.7329 99.4814 96.375 102.839 96.375 106.981V132.36C96.375 136.502 99.7329 139.86 103.875 139.86H129.254C133.396 139.86 136.754 136.502 136.754 132.36V106.981C136.754 102.839 133.396 99.4814 129.254 99.4814Z" fill="#343434" stroke="#3E3E3E"/>
<g opacity="0.75">
<path opacity="0.7" d="M106 110.008C106 110.008 115.023 109.985 119.259 110.016C121.814 110.035 123.856 111.101 125.475 113.108C128.949 117.416 126.922 124.475 120.813 125.814C120.102 125.97 119.349 125.962 118.614 125.974C117.641 125.989 116.652 126.05 115.698 125.909C113.653 125.607 111.828 123.631 111.772 121.482C111.76 121.02 111.872 121.074 111.544 120.892C110.105 120.093 108.864 118.226 108.679 116.656C108.614 116.098 108.734 115.901 108.458 115.761C107.265 114.775 106.273 112.895 106.141 111.397L106 110.008ZM113.661 121.346C113.821 122.811 114.915 124.205 116.704 124.2H119.191C121.559 124.201 123.88 122.699 124.85 120.381C126.547 116.326 123.582 111.85 119.189 111.845C118.057 111.843 116.925 111.845 115.792 111.844C113.551 111.842 111.31 111.839 109.069 111.836C108.741 111.835 108.413 111.836 108.074 111.836C108.269 113.312 109.288 114.687 111.126 114.656L119.176 114.645C120.86 114.648 122.329 115.942 122.494 117.555C122.682 119.389 121.554 120.947 119.787 121.281C119.543 121.327 119.289 121.342 119.04 121.343C117.259 121.348 115.477 121.346 113.662 121.346L113.661 121.346ZM110.52 116.558C110.52 116.558 110.958 119.43 113.564 119.419C113.564 119.419 118.671 119.424 119.243 119.397C119.82 119.369 120.254 119.093 120.494 118.557C120.717 118.059 120.66 117.583 120.328 117.145C119.969 116.673 119.46 116.571 118.91 116.57L110.52 116.558Z" fill="white"/>
</g>
<path d="M108.746 26.7588H83.3672C79.2251 26.7588 75.8672 30.1167 75.8672 34.2588V59.6377C75.8672 63.7798 79.2251 67.1377 83.3672 67.1377H108.746C112.888 67.1377 116.246 63.7798 116.246 59.6377V34.2588C116.246 30.1167 112.888 26.7588 108.746 26.7588Z" fill="#343434" stroke="#3E3E3E"/>
<g opacity="0.75">
<path opacity="0.35" fill-rule="evenodd" clip-rule="evenodd" d="M95.6737 36C95.2819 36 94.8895 36.1012 94.5386 36.3041L86.9789 40.6688C86.6337 40.8681 86.347 41.1548 86.1478 41.5001C85.9485 41.8453 85.8436 42.237 85.8438 42.6356V51.3655C85.8438 51.7515 85.942 52.1235 86.1204 52.451L89.4043 50.6157C88.75 49.5021 88.4061 48.2334 88.4083 46.9418C88.4083 42.9292 91.6611 39.6763 95.6737 39.6763V36Z" fill="white"/>
<path fill-rule="evenodd" clip-rule="evenodd" d="M86.125 52.4513C86.3246 52.8182 86.6217 53.1228 86.9835 53.3315L94.5432 57.6961C94.8882 57.8954 95.2796 58.0003 95.6781 58.0003C96.0765 58.0003 96.4679 57.8954 96.8129 57.6961L104.373 53.3315C104.735 53.1225 105.032 52.8177 105.232 52.4507L101.947 50.6155C101.307 51.7091 100.391 52.616 99.2911 53.246C98.1913 53.8759 96.9458 54.2071 95.6783 54.2064C94.4108 54.207 93.1653 53.8759 92.0654 53.2459C90.9655 52.6159 90.0497 51.7091 89.4089 50.6155L86.125 52.4513V52.4513Z" fill="white" fill-opacity="0.5"/>
<path fill-rule="evenodd" clip-rule="evenodd" d="M105.225 52.4506C105.407 52.1176 105.501 51.7444 105.501 51.3652V42.6353C105.501 42.2369 105.397 41.8455 105.197 41.5004C104.998 41.1554 104.712 40.8689 104.367 40.6696L96.8065 36.3044C96.4556 36.1014 96.0637 36.0002 95.6719 36.0002V39.676C99.6845 39.676 102.937 42.9288 102.937 46.9414C102.937 48.2819 102.574 49.5381 101.941 50.6154L105.225 52.4506V52.4506Z" fill="white" fill-opacity="0.85"/>
<path d="M96.3889 51.9268C96.3886 52.0155 96.3531 52.1005 96.2903 52.1632C96.2275 52.2259 96.1425 52.2612 96.0538 52.2613H95.3847C95.296 52.2612 95.211 52.2259 95.1483 52.1632C95.0856 52.1005 95.0503 52.0155 95.0502 51.9268V50.8729C93.5863 50.6717 92.8758 49.8605 92.6839 48.74C92.6765 48.6954 92.6789 48.6498 92.691 48.6062C92.7032 48.5627 92.7247 48.5224 92.7542 48.4881C92.7837 48.4539 92.8203 48.4265 92.8615 48.408C92.9027 48.3894 92.9475 48.3802 92.9927 48.3809H93.7536C93.9127 48.3809 94.0466 48.4973 94.0799 48.6488C94.2226 49.3085 94.6069 49.819 95.7783 49.819C96.6386 49.819 97.2574 49.3336 97.2574 48.6143C97.2574 47.8955 96.8983 47.6194 95.6274 47.4106C93.7536 47.1592 92.867 46.5907 92.867 45.1268C92.867 43.9981 93.729 43.1115 95.0502 42.9278V41.8909C95.0502 41.7067 95.2005 41.5564 95.3847 41.5564H96.0538C96.2374 41.5564 96.3889 41.7067 96.3889 41.8909V42.9524C97.4667 43.1454 98.1533 43.7554 98.3791 44.7765C98.3879 44.8217 98.3865 44.8684 98.375 44.913C98.3634 44.9576 98.342 44.999 98.3123 45.0342C98.2827 45.0695 98.2454 45.0976 98.2035 45.1166C98.1615 45.1355 98.1158 45.1448 98.0697 45.1438H97.3661C97.294 45.1435 97.2239 45.1196 97.1666 45.0758C97.1093 45.032 97.0678 44.9706 97.0486 44.9011C96.8568 44.2578 96.3965 43.9735 95.5935 43.9735C94.7069 43.9735 94.2472 44.3993 94.2472 45.0017C94.2472 45.6374 94.5063 45.955 95.8695 46.148C97.7094 46.3989 98.6627 46.9258 98.6627 48.4891C98.6627 49.6769 97.7761 50.639 96.3965 50.8559V51.9262H96.3877H96.3889V51.9268Z" fill="white"/>
</g>
<path d="M189.262 -8.49023H163.883C159.741 -8.49023 156.383 -5.13237 156.383 -0.990235V24.3887C156.383 28.5308 159.741 31.8887 163.883 31.8887H189.262C193.404 31.8887 196.762 28.5308 196.762 24.3887V-0.990235C196.762 -5.13237 193.404 -8.49023 189.262 -8.49023Z" fill="#343434" stroke="#3E3E3E"/>
<g opacity="0.75">
<path fill-rule="evenodd" clip-rule="evenodd" d="M176.438 23C171.486 20.5228 169.008 17.1191 169.001 12.7883C169 11.9569 169 10.5943 169.001 8.69981L176.438 6V23Z" fill="white"/>
<path opacity="0.5" fill-rule="evenodd" clip-rule="evenodd" d="M176.438 17.7789V14.4086L182.606 8.23975L183.874 8.69981L183.875 10.3414L176.438 17.7789V17.7789ZM176.438 20.7836L183.859 13.3631C183.641 17.4213 181.168 20.6338 176.438 23V20.7836V20.7836ZM176.438 11.4039V6L180.402 7.43969L176.438 11.4033V11.4039Z" fill="white"/>
</g>
<path d="M62.418 75.75H37.0391C32.8969 75.75 29.5391 79.1079 29.5391 83.25V108.629C29.5391 112.771 32.8969 116.129 37.0391 116.129H62.418C66.5601 116.129 69.918 112.771 69.918 108.629V83.25C69.918 79.1079 66.5601 75.75 62.418 75.75Z" fill="#343434" stroke="#3E3E3E"/>
<g opacity="0.75">
<path d="M57.0951 102.463C57.0909 103.284 56.0586 103.647 55.5414 103.009L47.9766 93.6724L54.329 88.6809C55.4796 87.7768 57.1655 88.6016 57.1581 90.0649L57.0951 102.463Z" fill="url(#paint2_linear_7470_380)"/>
<path d="M57.0951 102.463C57.0909 103.284 56.0586 103.647 55.5414 103.009L47.9766 93.6724L54.329 88.6809C55.4796 87.7768 57.1655 88.6016 57.1581 90.0649L57.0951 102.463Z" fill="url(#paint3_linear_7470_380)" fill-opacity="0.2"/>
<path d="M42.5679 89.2911C42.5721 88.4696 43.6044 88.1068 44.1216 88.7451L51.607 98.1437L45.334 103.073C44.1834 103.977 42.4975 103.152 42.5049 101.689L42.5679 89.2911Z" fill="white"/>
</g>
<path d="M277.496 73.1904H252.117C247.975 73.1904 244.617 76.5483 244.617 80.6904V106.069C244.617 110.211 247.975 113.569 252.117 113.569H277.496C281.638 113.569 284.996 110.211 284.996 106.069V80.6904C284.996 76.5483 281.638 73.1904 277.496 73.1904Z" fill="#343434" stroke="#3E3E3E"/>
<g opacity="0.6">
<g opacity="0.7" filter="url(#filter0_d_7470_380)">
<g clip-path="url(#clip1_7470_380)">
<path d="M253.016 91.9863C255.197 91.7359 256.406 89.9057 256.195 87.911H253.034C252.995 87.7243 252.987 80.2611 253.022 80H260.897C260.942 80.0404 260.931 80.0923 260.931 80.1395C260.927 82.5888 260.946 85.0385 260.911 87.4873C260.891 88.8737 260.584 90.2076 259.887 91.4271C259.008 92.9665 257.654 93.9003 256.004 94.4514C255.12 94.7468 254.207 94.9017 253.282 94.9959C253.2 95.0044 253.115 94.9971 253.016 94.9971V91.9863H253.016Z" fill="white"/>
</g>
</g>
</g>
<path d="M307.527 102.156H282.148C278.006 102.156 274.648 105.514 274.648 109.656V135.035C274.648 139.177 278.006 142.535 282.148 142.535H307.527C311.669 142.535 315.027 139.177 315.027 135.035V109.656C315.027 105.514 311.669 102.156 307.527 102.156Z" fill="#343434" stroke="#3E3E3E"/>
<g opacity="0.75">
<path d="M291.44 128.758C291.297 128.618 291.225 128.434 291.225 128.206V126.921C291.225 126.49 291.116 126.08 290.897 125.69C290.678 125.301 290.409 124.903 290.088 124.496C289.768 124.088 289.448 123.642 289.127 123.157C288.807 122.672 288.539 122.12 288.323 121.5C288.108 120.88 288 120.157 288 119.33C288 118.24 288.178 117.246 288.534 116.348C288.891 115.449 289.398 114.675 290.057 114.026C290.716 113.376 291.499 112.876 292.406 112.525C293.314 112.175 294.321 112 295.429 112C296.537 112 297.546 112.175 298.456 112.525C299.367 112.876 300.15 113.376 300.806 114.026C301.461 114.676 301.967 115.45 302.324 116.348C302.68 117.246 302.858 118.24 302.858 119.33C302.858 120.157 302.749 120.88 302.53 121.5C302.312 122.12 302.042 122.672 301.722 123.157C301.401 123.642 301.082 124.089 300.765 124.496C300.448 124.903 300.18 125.301 299.961 125.691C299.742 126.08 299.633 126.49 299.633 126.921V128.206C299.633 128.434 299.561 128.618 299.418 128.758C299.274 128.899 299.085 128.969 298.852 128.969H291.997C291.77 128.969 291.584 128.899 291.44 128.758V128.758ZM291.917 127.092H298.942L297.711 128.457V126.831C297.711 126.256 297.819 125.734 298.034 125.264C298.25 124.794 298.516 124.343 298.834 123.912C299.151 123.481 299.468 123.04 299.786 122.591C300.103 122.142 300.371 121.656 300.59 121.131C300.808 120.607 300.918 120.01 300.918 119.339C300.918 118.255 300.689 117.309 300.231 116.501C299.772 115.692 299.133 115.065 298.313 114.619C297.492 114.173 296.531 113.949 295.429 113.949C294.327 113.949 293.366 114.173 292.545 114.619C291.725 115.065 291.087 115.692 290.632 116.501C290.177 117.309 289.949 118.255 289.949 119.339C289.949 120.01 290.057 120.607 290.272 121.131C290.488 121.656 290.754 122.142 291.072 122.591C291.389 123.04 291.707 123.481 292.024 123.912C292.342 124.343 292.608 124.794 292.824 125.264C293.039 125.734 293.147 126.256 293.147 126.831V128.457L291.916 127.092H291.917ZM291.463 131.323C291.274 131.131 291.18 130.907 291.18 130.649C291.18 130.392 291.274 130.167 291.463 129.976C291.652 129.784 291.881 129.688 292.15 129.688H298.708C298.978 129.688 299.205 129.784 299.391 129.976C299.576 130.167 299.669 130.392 299.669 130.649C299.669 130.907 299.576 131.131 299.391 131.323C299.205 131.515 298.978 131.61 298.708 131.61H292.15C291.881 131.61 291.652 131.515 291.463 131.323V131.323ZM293.632 133.537C293.165 133.229 292.908 132.826 292.86 132.329H297.989C297.941 132.826 297.682 133.229 297.212 133.537C296.742 133.846 296.148 134 295.429 134C294.698 134 294.1 133.846 293.632 133.537H293.632Z" fill="#F9E9E9"/>
</g>
<path d="M312.566 10.3711H287.188C283.045 10.3711 279.688 13.729 279.688 17.8711V43.25C279.688 47.3921 283.045 50.75 287.188 50.75H312.566C316.709 50.75 320.066 47.3921 320.066 43.25V17.8711C320.066 13.729 316.709 10.3711 312.566 10.3711Z" fill="#343434" stroke="#3E3E3E"/>
<path d="M445.5 0H0V149H445.5V0Z" fill="url(#paint4_radial_7470_380)"/>
<g opacity="0.3">
<path d="M310.881 39.9715C308.712 39.988 310.949 39.96 308.78 39.9627C304.068 39.971 299.358 39.9737 294.645 39.9696C292.344 39.9696 290.063 39.6991 287.773 39.8872C287.188 39.8872 286.628 40.0144 286.045 39.9979C285.942 39.9977 286.047 39.9979 286.047 39.9979C286.144 39.98 285.947 40.0075 286.045 39.9979C287.124 39.954 288.204 39.8688 289.283 39.8304C290.521 39.7892 291.761 39.7535 293.003 39.7151C293.342 39.7041 293.368 39.4465 293.384 39.0869C293.411 37.6632 293.584 36.2451 293.9 34.8571C294.023 34.3217 293.97 34.0993 293.498 33.8083C292.671 33.3017 292.182 32.4835 291.979 31.5225C291.842 30.8786 292.041 30.2952 292.428 29.7776C292.631 29.5058 292.844 29.2422 293.044 28.969C293.211 28.7563 293.455 28.6189 293.723 28.5873C293.815 28.5929 293.901 28.6392 293.956 28.7136C293.981 28.7438 293.942 28.8784 293.893 28.9141C293.69 29.0665 293.488 29.2641 293.256 29.3259C292.899 29.4207 292.725 29.6774 292.58 29.9574C292.018 31.0571 292.542 32.1361 293.204 32.7278C293.473 32.9598 293.764 33.1617 294.074 33.3305C294.424 33.5282 294.605 33.4705 294.905 33.2028C296.08 32.1375 297.258 31.0749 298.44 30.0151C298.526 29.9382 298.609 29.8558 298.695 29.779C298.89 29.6019 299.063 29.6444 299.121 29.9066C299.226 30.4283 299.31 30.9527 299.391 31.4772C299.43 31.7325 299.443 31.992 299.467 32.2487H299.539C299.574 32.0538 299.592 31.8561 299.594 31.6584C299.552 30.8965 299.527 30.129 299.417 29.3754C299.354 28.9415 299.136 28.5311 298.999 28.1068C298.951 27.9833 298.932 27.8503 298.944 27.7183C298.975 27.5316 298.902 27.4712 298.749 27.4026C297.792 26.9701 296.791 26.6777 295.783 26.4086C295.67 26.3829 295.567 26.3224 295.49 26.2357C295.411 26.1483 295.361 26.0391 295.347 25.9226C295.3 25.7215 295.24 25.5238 295.167 25.3309C295.079 25.088 295.104 24.8985 295.347 24.7585C295.948 24.4153 296.545 24.0679 297.138 23.711C297.335 23.6053 297.513 23.4707 297.67 23.3129C297.973 22.9751 298.379 22.8461 298.768 22.6814C299.707 22.286 300.649 21.9002 301.584 21.5035C301.664 21.4531 301.735 21.3905 301.796 21.3181C301.748 21.2516 301.692 21.1908 301.63 21.1369C300.477 20.369 299.465 19.4076 298.639 18.2951C298.589 18.2265 298.611 18.1015 298.598 18.0013C298.687 17.9963 298.777 18.0056 298.864 18.0288C299.637 18.3802 300.402 18.7509 301.176 19.0927C301.759 19.3508 302.363 19.5609 302.947 19.8203C303.598 20.11 304.28 20.3558 304.782 20.9118C305.026 21.1588 305.047 21.5492 304.83 21.8206L303.972 23.0232C304.077 23.0494 304.183 23.0632 304.291 23.0644C304.887 22.993 305.481 22.9051 306.078 22.8379C306.195 22.8406 306.312 22.8585 306.421 22.8928C306.395 23.0056 306.355 23.1145 306.301 23.2168C305.793 23.9224 305.175 24.5402 304.475 25.0468C304.324 25.1539 304.369 25.2719 304.445 25.3941C304.774 25.9075 305.124 26.4059 305.425 26.9344C305.911 27.7911 306.4 28.6491 306.825 29.5373C307.278 30.4805 307.683 31.4511 308.055 32.4313C308.339 33.1891 308.555 33.9661 308.773 34.7445C308.976 35.4708 309.163 36.2039 309.315 36.9411C309.461 37.655 309.554 38.3812 309.667 39.102C309.727 39.4918 309.813 39.7289 310.194 39.7426L310.881 39.9715ZM304.008 39.4575V39.4946H307.273C307.698 39.4946 307.723 39.4438 307.529 39.047C307.424 38.8384 307.334 38.6242 307.241 38.4114C306.918 37.6325 306.447 36.9238 305.853 36.3247C305.587 36.0652 305.249 35.8662 304.878 35.8826C304.307 35.9087 303.747 36.127 303.23 36.3604C302.424 36.7308 301.726 37.2989 301.199 38.0119C300.926 38.3856 300.676 38.7753 300.45 39.1788C300.349 39.3477 300.415 39.4603 300.639 39.4589C301.758 39.4534 302.882 39.4575 304.008 39.4575ZM296.463 39.4891V39.4767H298.083C298.423 39.4767 298.46 39.4301 298.502 39.1006C298.54 38.7876 298.592 38.4773 298.642 38.1657C298.734 37.5891 298.837 37.0125 298.913 36.4331C298.956 36.1092 298.865 36.0419 298.574 36.1572C298.125 36.3183 297.687 36.5096 297.263 36.7297C296.19 37.3379 295.275 38.13 294.642 39.2187C294.52 39.4356 294.545 39.4836 294.791 39.485C295.347 39.4946 295.903 39.4891 296.463 39.4891Z" fill="#FFFBFB"/>
<path d="M299.261 21.9289C299.287 21.951 299.75 22.3679 299.77 22.3953L300.546 22.0851C300.635 21.9734 300.659 21.9379 300.559 21.8362C300.352 21.6072 300.071 21.506 299.803 21.3868C299.563 21.2799 299.314 21.1934 299.074 21.0872C298.755 20.9464 298.44 20.7938 298.122 20.6491C298.086 20.6395 298.049 20.6357 298.012 20.6378C298.018 20.679 298.009 20.7305 298.029 20.7587C298.369 21.2168 298.786 21.6127 299.261 21.9289Z" fill="#FFFBFB"/>
</g>
</g>
<defs>
<filter id="filter0_d_7470_380" x="251" y="78" width="11.9297" height="19" filterUnits="userSpaceOnUse" color-interpolation-filters="sRGB">
<feFlood flood-opacity="0" result="BackgroundImageFix"/>
<feColorMatrix in="SourceAlpha" type="matrix" values="0 0 0 0 0 0 0 0 0 0 0 0 0 0 0 0 0 0 127 0" result="hardAlpha"/>
<feOffset/>
<feGaussianBlur stdDeviation="1"/>
<feComposite in2="hardAlpha" operator="out"/>
<feColorMatrix type="matrix" values="0 0 0 0 0 0 0 0 0 0 0 0 0 0 0 0 0 0 0.85 0"/>
<feBlend mode="normal" in2="BackgroundImageFix" result="effect1_dropShadow_7470_380"/>
<feBlend mode="normal" in="SourceGraphic" in2="effect1_dropShadow_7470_380" result="shape"/>
</filter>
<radialGradient id="paint0_radial_7470_380" cx="0" cy="0" r="1" gradientUnits="userSpaceOnUse" gradientTransform="translate(182.694 66.6108) rotate(54.8302) scale(30.254 54.654)">
<stop stop-color="#868686"/>
<stop offset="1" stop-color="white"/>
</radialGradient>
<radialGradient id="paint1_radial_7470_380" cx="0" cy="0" r="1" gradientUnits="userSpaceOnUse" gradientTransform="translate(182.724 73.9895) rotate(53.3675) scale(28.9565 53.1956)">
<stop stop-color="#868686"/>
<stop offset="1" stop-color="white"/>
</radialGradient>
<linearGradient id="paint2_linear_7470_380" x1="49.6225" y1="95.7671" x2="57.1289" y2="93.6987" gradientUnits="userSpaceOnUse">
<stop stop-color="white"/>
<stop offset="1" stop-color="#FBFFFD"/>
</linearGradient>
<linearGradient id="paint3_linear_7470_380" x1="44.4266" y1="94.3067" x2="50.8098" y2="97.1305" gradientUnits="userSpaceOnUse">
<stop stop-color="#040404"/>
<stop offset="1" stop-color="#211D1D" stop-opacity="0.83"/>
</linearGradient>
<radialGradient id="paint4_radial_7470_380" cx="0" cy="0" r="1" gradientUnits="userSpaceOnUse" gradientTransform="translate(222.75 67) rotate(90) scale(71.5 213.78)">
<stop offset="0.208333" stop-color="#1C1C1C" stop-opacity="0"/>
<stop offset="1" stop-color="#1C1C1C"/>
</radialGradient>
<clipPath id="clip0_7470_380">
<rect width="446" height="149" fill="white"/>
</clipPath>
<clipPath id="clip1_7470_380">
<rect width="7.93267" height="15" fill="white" transform="translate(253 80)"/>
</clipPath>
</defs>
</svg>
