<svg width="27" height="24" viewBox="0 0 27 24" fill="none" xmlns="http://www.w3.org/2000/svg">
<g clip-path="url(#clip0_7478_1552)">
<path d="M5 11.4C5 9.15982 5 8.0397 5.43598 7.18404C5.81947 6.43139 6.43139 5.81947 7.18404 5.43598C8.0397 5 9.15982 5 11.4 5H14.6C16.8402 5 17.9602 5 18.816 5.43598C19.5686 5.81947 20.1805 6.43139 20.564 7.18404C21 8.0397 21 9.15982 21 11.4V14.6C21 16.8402 21 17.9602 20.564 18.816C20.1805 19.5686 19.5686 20.1805 18.816 20.564C17.9602 21 16.8402 21 14.6 21H11.4C9.15982 21 8.0397 21 7.18404 20.564C6.43139 20.1805 5.81947 19.5686 5.43598 18.816C5 17.9602 5 16.8402 5 14.6V11.4Z" fill="url(#paint0_linear_7478_1552)"/>
<path d="M9.90402 8.39937C10.3474 8.3994 10.7908 8.40003 11.2342 8.39844C11.2807 8.39829 11.2967 8.40888 11.2966 8.45853C11.2951 9.25838 11.2974 10.0582 11.295 10.8581C11.2936 11.305 11.2292 11.7414 11.0534 12.1564C10.8485 12.6402 10.5131 13.0058 10.0529 13.2571C9.67232 13.4649 9.26083 13.5733 8.83397 13.6302C8.74444 13.6422 8.6543 13.6499 8.56462 13.6607C8.52895 13.6651 8.51548 13.6538 8.51563 13.6159C8.51686 13.2907 8.51671 12.9656 8.51578 12.6404C8.51569 12.6075 8.52784 12.596 8.55933 12.5898C8.74417 12.5536 8.92955 12.5122 9.08564 12.4015C9.40928 12.172 9.61674 11.8709 9.63391 11.461C9.63719 11.3828 9.63671 11.3045 9.64173 11.2265C9.64462 11.182 9.62802 11.171 9.58555 11.1712C9.25169 11.1727 8.91785 11.172 8.58399 11.172C8.53896 11.172 8.51644 11.1491 8.51641 11.1032C8.51644 10.2251 8.51644 9.34701 8.5165 8.46891C8.51653 8.42265 8.53911 8.39949 8.58429 8.39937C9.0242 8.39934 9.46411 8.39937 9.90402 8.39937Z" fill="white"/>
</g>
<defs>
<linearGradient id="paint0_linear_7478_1552" x1="8.62704" y1="5.52737" x2="16.5278" y2="20.7239" gradientUnits="userSpaceOnUse">
<stop stop-color="#51E460"/>
<stop offset="1" stop-color="#389D8B"/>
</linearGradient>
<clipPath id="clip0_7478_1552">
<rect width="16" height="16" fill="white" transform="translate(5 5)"/>
</clipPath>
</defs>
</svg>
