<svg width="532" height="532" viewBox="0 0 532 532" fill="none" xmlns="http://www.w3.org/2000/svg">
<path d="M0 212.8C0 138.314 -9.53674e-07 101.07 14.4962 72.6192C27.2473 47.5938 47.5938 27.2473 72.6192 14.4962C101.07 -9.53674e-07 138.314 0 212.8 0H319.2C393.688 0 430.928 -9.53674e-07 459.382 14.4962C484.406 27.2473 504.751 47.5938 517.503 72.6192C532 101.07 532 138.314 532 212.8V319.2C532 393.688 532 430.928 517.503 459.382C504.751 484.406 484.406 504.751 459.382 517.503C430.928 532 393.688 532 319.2 532H212.8C138.314 532 101.07 532 72.6192 517.503C47.5938 504.751 27.2473 484.406 14.4962 459.382C-9.53674e-07 430.928 0 393.688 0 319.2V212.8Z" fill="url(#paint0_linear_7083_777)"/>
<g filter="url(#filter0_i_7083_777)">
<path d="M177.759 120.036C194.608 120.037 211.457 120.061 228.306 120C230.073 119.994 230.68 120.396 230.677 122.284C230.62 152.678 230.706 183.072 230.615 213.466C230.564 230.448 228.116 247.032 221.435 262.804C213.648 281.188 200.903 295.079 183.415 304.63C168.954 312.527 153.318 316.643 137.097 318.807C133.695 319.261 130.27 319.554 126.861 319.967C125.506 320.131 124.994 319.705 125 318.263C125.046 305.907 125.042 293.551 125.006 281.195C125.002 279.946 125.464 279.507 126.66 279.273C133.684 277.897 140.729 276.323 146.66 272.117C158.959 263.395 166.842 251.953 167.495 236.377C167.619 233.407 167.601 230.43 167.792 227.465C167.901 225.777 167.271 225.356 165.657 225.363C152.971 225.42 140.285 225.396 127.598 225.395C125.887 225.395 125.031 224.524 125.03 222.781C125.031 189.413 125.031 156.046 125.033 122.678C125.034 120.92 125.892 120.04 127.609 120.036C144.325 120.034 161.042 120.035 177.759 120.036Z" fill="white"/>
</g>
<defs>
<filter id="filter0_i_7083_777" x="125" y="120" width="106.678" height="201" filterUnits="userSpaceOnUse" color-interpolation-filters="sRGB">
<feFlood flood-opacity="0" result="BackgroundImageFix"/>
<feBlend mode="normal" in="SourceGraphic" in2="BackgroundImageFix" result="shape"/>
<feColorMatrix in="SourceAlpha" type="matrix" values="0 0 0 0 0 0 0 0 0 0 0 0 0 0 0 0 0 0 127 0" result="hardAlpha"/>
<feOffset dx="1" dy="2"/>
<feGaussianBlur stdDeviation="0.5"/>
<feComposite in2="hardAlpha" operator="arithmetic" k2="-1" k3="1"/>
<feColorMatrix type="matrix" values="0 0 0 0 0 0 0 0 0 0 0 0 0 0 0 0 0 0 0.65 0"/>
<feBlend mode="normal" in2="shape" result="effect1_innerShadow_7083_777"/>
</filter>
<linearGradient id="paint0_linear_7083_777" x1="120.599" y1="17.535" x2="383.298" y2="522.819" gradientUnits="userSpaceOnUse">
<stop stop-color="#33343B"/>
<stop offset="1" stop-color="#18191E"/>
</linearGradient>
</defs>
</svg>
