<?xml version="1.0" encoding="utf-8"?>
<!-- Generator: Adobe Illustrator 26.2.0, SVG Export Plug-In . SVG Version: 6.00 Build 0)  -->
<svg version="1.1" id="Layer_1" xmlns="http://www.w3.org/2000/svg" xmlns:xlink="http://www.w3.org/1999/xlink" x="0px" y="0px"
	 viewBox="0 0 512 512" style="enable-background:new 0 0 512 512;" xml:space="preserve">
<g transform="translate(0.000000,512.000000) scale(0.100000,-0.100000)">
	<path d="M1040,5110c-25-4-63-11-84-14c-60-10-207-61-287-101c-165-81-317-208-430-358c-106-141-203-370-226-534c-4-32-8-735-8-1563
		V1035l22-93C143,457,525,95,1006,16c135-23,2988-22,3114,0c303,54,576,222,761,466c99,132,190,340,225,513c11,55,15,3029,5,3085
		c-5,25-12,63-15,84c-8,49-57,197-87,262c-163,351-504,610-894,678c-66,12-334,14-1555,14C1749,5118,1065,5114,1040,5110z"/>
</g>
</svg>
