<svg width="109" height="113" viewBox="0 0 109 113" fill="none" xmlns="http://www.w3.org/2000/svg">
<path d="M11 22.7969C11.1846 22.9853 11.5083 23.158 11.5319 23.3647C11.7619 25.3774 13.0198 26.7288 14.5483 27.81C28.5844 37.7386 42.6235 47.663 56.7104 57.5195C60.1128 59.9002 62.8108 59.7625 66.1687 57.4017C73.8407 52.0074 81.5066 46.6042 89.162 41.1866C93.5025 38.1146 96.6682 34.1212 98.3238 29.0641C98.9016 27.2993 99.1238 25.4196 99.3666 24.2666C99.3666 28.6723 99.6936 33.7801 99.2834 38.8286C98.7776 45.0525 95.6419 50.185 90.6332 53.8808C82.2902 60.0368 73.7826 65.9748 65.2708 71.9003C62.503 73.8272 59.5708 73.3226 56.8594 71.5617C54.0788 69.7556 51.3202 67.9116 48.6157 65.995C37.4098 58.0523 26.2314 50.0708 15.0341 42.116C13.1158 40.753 11.6006 39.142 11.2594 36.7058C11.2675 32.7477 11.2817 28.7892 11.2714 24.831C11.2705 24.5304 11.0945 24.2303 11 23.9302C11 23.5525 11 23.1749 11 22.7969Z" fill="#3ECF8E"/>
<path d="M11 23.2031C11.1846 23.3915 11.5083 23.5641 11.5319 23.7708C11.7619 25.7836 13.0198 27.1349 14.5483 28.2161C28.5844 38.1447 42.6235 48.0691 56.7104 57.9256C60.1128 60.3064 62.8108 60.1686 66.1687 57.8079C73.8407 52.4135 81.5066 47.0104 89.1619 41.5928C93.5025 38.5207 96.6682 34.5273 98.3238 29.4702C98.9016 27.7055 99.1238 25.8257 99.3666 24.6727C99.3666 29.0784 99.6936 34.1862 99.2834 39.2348C98.7776 45.4587 95.6419 50.5911 90.6332 54.2869C82.2902 60.443 73.7826 66.3809 65.2708 72.3064C62.503 74.2333 59.5708 73.7287 56.8594 71.9678C54.0788 70.1618 51.3202 68.3178 48.6157 66.4012C37.4098 58.4585 26.2314 50.477 15.0341 42.5221C13.1158 41.1591 11.6006 39.5481 11.2594 37.112C11.2675 33.1538 11.2817 29.1953 11.2714 25.2372C11.2705 24.9365 11.0945 24.6364 11 24.3364C11 23.9587 11 23.581 11 23.2031Z" fill="#3ECF8E" fill-opacity="0.7"/>
<path d="M11.0003 54.7852C11.1769 54.9035 11.4941 55.0066 11.5088 55.1421C11.7538 57.3865 13.2626 58.7415 14.9343 59.9576C21.3678 64.6376 27.7674 69.3652 34.2713 73.9469C41.472 79.0189 48.7661 83.9599 56.0324 88.9397C60.1958 91.7932 62.5057 91.8051 66.663 88.8982C74.0372 83.7419 81.3655 78.5205 88.735 73.3569C93.1273 70.2796 96.456 66.3733 98.1825 61.2812C98.8234 59.3907 99.0837 57.3726 99.7755 55.4089C99.5853 60.8897 99.7493 66.4115 99.109 71.8399C98.423 77.6557 95.2172 82.4052 90.5107 85.8621C82.2314 91.9434 73.7984 97.8198 65.377 103.708C62.4253 105.771 59.4162 105.159 56.6013 103.285C52.9354 100.844 49.2772 98.3873 45.6866 95.8389C35.3371 88.4934 25.0235 81.0979 14.6952 73.723C12.8491 72.4049 11.5291 70.7504 11.2433 68.4284C11.2561 64.4179 11.2739 60.4076 11.2692 56.3973C11.2689 56.1435 11.0937 55.8897 11 55.6359C11.0003 55.3519 11.0003 55.0687 11.0003 54.7852Z" fill="#3ECF8E"/>
<path d="M11.0003 54.3438C11.1769 54.462 11.4941 54.5651 11.5088 54.7006C11.7538 56.945 13.2626 58.3 14.9343 59.5161C21.3678 64.1961 27.7674 68.9238 34.2713 73.5054C41.472 78.5775 48.7661 83.5184 56.0324 88.4982C60.1958 91.3516 62.5057 91.3636 66.663 88.4567C74.0372 83.3004 81.3655 78.0789 88.735 72.9154C93.1273 69.8381 96.456 65.9318 98.1825 60.8398C98.8234 58.9492 99.0837 56.9311 99.7755 54.9674C99.5853 60.4481 99.7493 65.9699 99.109 71.3983C98.423 77.2141 95.2172 81.9638 90.5107 85.4207C82.2314 91.5019 73.7984 97.3783 65.377 103.266C62.4253 105.33 59.4162 104.717 56.6013 102.843C52.9354 100.402 49.2772 97.9457 45.6866 95.3974C35.3371 88.0518 25.0235 80.6565 14.6952 73.2815C12.8491 71.9634 11.5291 70.3089 11.2433 67.9869C11.2561 63.9764 11.2739 59.966 11.2692 55.9557C11.2689 55.7019 11.0937 55.4482 11 55.1944C11.0003 54.9104 11.0003 54.6271 11.0003 54.3438Z" fill="#3ECF8E"/>
<path d="M31.5312 21.7236C31.7712 21.4512 31.8951 21.2406 32.0777 21.1132C36.5437 17.9979 40.9309 14.7601 45.5112 11.82C50.251 8.77755 55.4851 6.99117 61.2113 7.00003C66.5484 7.00835 71.3897 8.6983 75.7792 11.618C77.9011 13.0294 79.9551 14.5872 81.8379 16.2985C84.8813 19.0647 85.1963 23.991 82.7747 27.3027C82.2336 28.0428 81.6705 28.0908 80.96 27.6181C79.974 26.9622 78.9956 26.2939 77.9924 25.6652C67.8618 19.3157 57.7295 19.3842 47.6003 25.6735C45.9906 26.6729 44.3966 27.6995 42.7566 28.6472C42.4274 28.8375 41.7981 28.9126 41.517 28.727C38.356 26.638 35.2345 24.4898 32.1091 22.3479C31.9216 22.2199 31.7916 22.0096 31.5312 21.7236Z" fill="#3ECF8E"/>
<path d="M11 22.7969C11.1846 22.9853 11.5083 23.158 11.5319 23.3647C11.7619 25.3774 13.0198 26.7288 14.5483 27.81C28.5844 37.7386 42.6235 47.663 56.7104 57.5195C60.1128 59.9002 62.8108 59.7625 66.1687 57.4017C73.8407 52.0074 81.5066 46.6042 89.162 41.1866C93.5025 38.1146 96.6682 34.1212 98.3238 29.0641C98.9016 27.2993 99.1238 25.4196 99.3666 24.2666C99.3666 28.6723 99.6936 33.7801 99.2834 38.8286C98.7776 45.0525 95.6419 50.185 90.6332 53.8808C82.2902 60.0368 73.7826 65.9748 65.2708 71.9003C62.503 73.8272 59.5708 73.3226 56.8594 71.5617C54.0788 69.7556 51.3202 67.9116 48.6157 65.995C37.4098 58.0523 26.2314 50.0708 15.0341 42.116C13.1158 40.753 11.6006 39.142 11.2594 36.7058C11.2675 32.7477 11.2817 28.7892 11.2714 24.831C11.2705 24.5304 11.0945 24.2303 11 23.9302C11 23.5525 11 23.1749 11 22.7969Z" fill="url(#paint0_linear_7434_295)" fill-opacity="0.2"/>
<path d="M11 22.7617C11.1846 22.9501 11.5083 23.1227 11.5319 23.3294C11.7619 25.3422 13.0198 26.6935 14.5483 27.7747C28.5844 37.7033 42.6235 47.6277 56.7104 57.4842C60.1128 59.865 62.8108 59.7272 66.1687 57.3665C73.8407 51.9721 81.5066 46.569 89.1619 41.1514C93.5025 38.0793 96.6682 34.0859 98.3238 29.0288C98.9016 27.264 99.1238 25.3843 99.3666 24.2313C99.3666 28.637 99.6936 33.7448 99.2834 38.7933C98.7776 45.0173 95.6419 50.1497 90.6332 53.8455C82.2902 60.0016 73.7826 65.9395 65.2708 71.865C62.503 73.7919 59.5708 73.2873 56.8594 71.5264C54.0788 69.7204 51.3202 67.8764 48.6157 65.9598C37.4098 58.0171 26.2314 50.0356 15.0341 42.0807C13.1158 40.7177 11.6006 39.1067 11.2594 36.6706C11.2675 32.7124 11.2817 28.7539 11.2714 24.7958C11.2705 24.4951 11.0945 24.195 11 23.895C11 23.5173 11 23.1396 11 22.7617Z" fill="url(#paint1_linear_7434_295)" fill-opacity="0.2"/>
<path d="M11.0003 54.7852C11.1769 54.9035 11.4941 55.0066 11.5088 55.1421C11.7538 57.3865 13.2626 58.7415 14.9343 59.9576C21.3678 64.6376 27.7674 69.3652 34.2713 73.9469C41.472 79.0189 48.7661 83.9599 56.0324 88.9397C60.1958 91.7932 62.5057 91.8051 66.663 88.8982C74.0372 83.7419 81.3655 78.5205 88.735 73.3569C93.1273 70.2796 96.456 66.3733 98.1825 61.2812C98.8234 59.3907 99.0837 57.3726 99.7755 55.4089C99.5853 60.8897 99.7493 66.4115 99.109 71.8399C98.423 77.6557 95.2172 82.4052 90.5107 85.8621C82.2314 91.9434 73.7984 97.8198 65.377 103.708C62.4253 105.771 59.4162 105.159 56.6013 103.285C52.9354 100.844 49.2772 98.3873 45.6866 95.8389C35.3371 88.4934 25.0235 81.0979 14.6952 73.723C12.8491 72.4049 11.5291 70.7504 11.2433 68.4284C11.2561 64.4179 11.2739 60.4076 11.2692 56.3973C11.2689 56.1435 11.0937 55.8897 11 55.6359C11.0003 55.3519 11.0003 55.0687 11.0003 54.7852Z" fill="url(#paint2_linear_7434_295)" fill-opacity="0.2"/>
<path d="M11.0003 54.3438C11.1769 54.462 11.4941 54.5651 11.5088 54.7006C11.7538 56.945 13.2626 58.3 14.9343 59.5161C21.3678 64.1961 27.7674 68.9238 34.2713 73.5054C41.472 78.5775 48.7661 83.5184 56.0324 88.4982C60.1958 91.3516 62.5057 91.3636 66.663 88.4567C74.0372 83.3004 81.3655 78.0789 88.735 72.9154C93.1273 69.8381 96.456 65.9318 98.1825 60.8398C98.8234 58.9492 99.0837 56.9311 99.7755 54.9674C99.5853 60.4481 99.7493 65.9699 99.109 71.3983C98.423 77.2141 95.2172 81.9638 90.5107 85.4207C82.2314 91.5019 73.7984 97.3783 65.377 103.266C62.4253 105.33 59.4162 104.717 56.6013 102.843C52.9354 100.402 49.2772 97.9457 45.6866 95.3974C35.3371 88.0518 25.0235 80.6565 14.6952 73.2815C12.8491 71.9634 11.5291 70.3089 11.2433 67.9869C11.2561 63.9764 11.2739 59.966 11.2692 55.9557C11.2689 55.7019 11.0937 55.4482 11 55.1944C11.0003 54.9104 11.0003 54.6271 11.0003 54.3438Z" fill="url(#paint3_linear_7434_295)" fill-opacity="0.2"/>
<path d="M31.5312 21.7236C31.7712 21.4512 31.8951 21.2406 32.0777 21.1132C36.5437 17.9979 40.9309 14.7601 45.5112 11.82C50.251 8.77755 55.4851 6.99117 61.2113 7.00003C66.5484 7.00835 71.3897 8.6983 75.7792 11.618C77.9011 13.0294 79.9551 14.5872 81.8379 16.2985C84.8813 19.0647 85.1963 23.991 82.7747 27.3027C82.2336 28.0428 81.6705 28.0908 80.96 27.6181C79.974 26.9622 78.9956 26.2939 77.9924 25.6652C67.8618 19.3157 57.7295 19.3842 47.6003 25.6735C45.9906 26.6729 44.3966 27.6995 42.7566 28.6472C42.4274 28.8375 41.7981 28.9126 41.517 28.727C38.356 26.638 35.2345 24.4898 32.1091 22.3479C31.9216 22.2199 31.7916 22.0096 31.5312 21.7236Z" fill="url(#paint4_linear_7434_295)" fill-opacity="0.2"/>
<defs>
<linearGradient id="paint0_linear_7434_295" x1="15.7864" y1="61.6827" x2="61.7483" y2="86.9673" gradientUnits="userSpaceOnUse">
<stop/>
<stop offset="1" stop-opacity="0"/>
</linearGradient>
<linearGradient id="paint1_linear_7434_295" x1="15.7864" y1="61.6475" x2="61.7483" y2="86.9321" gradientUnits="userSpaceOnUse">
<stop/>
<stop offset="1" stop-opacity="0"/>
</linearGradient>
<linearGradient id="paint2_linear_7434_295" x1="15.8018" y1="93.5767" x2="61.7906" y2="119.019" gradientUnits="userSpaceOnUse">
<stop/>
<stop offset="1" stop-opacity="0"/>
</linearGradient>
<linearGradient id="paint3_linear_7434_295" x1="15.8018" y1="93.1353" x2="61.7906" y2="118.578" gradientUnits="userSpaceOnUse">
<stop/>
<stop offset="1" stop-opacity="0"/>
</linearGradient>
<linearGradient id="paint4_linear_7434_295" x1="34.39" y1="23.8676" x2="57.1121" y2="41.0786" gradientUnits="userSpaceOnUse">
<stop/>
<stop offset="1" stop-opacity="0"/>
</linearGradient>
</defs>
</svg>
